<?xml version="1.0" encoding="UTF-8" standalone="no"?>
<!DOCTYPE svg PUBLIC "-//W3C//DTD SVG 1.1//EN" "http://www.w3.org/Graphics/SVG/1.1/DTD/svg11.dtd">
<svg xmlns="http://www.w3.org/2000/svg" version="1.1" viewBox="0.00 0.00 1024.00 1024.00">
<g stroke-width="2.00" fill="none" stroke-linecap="butt">
<path stroke="#5a565c" vector-effect="non-scaling-stroke" d="
  M 535.05 112.43
  Q 535.04 112.95 534.75 112.94
  C 523.28 112.45 511.85 112.23 500.39 112.82
  Q 496.52 113.01 492.66 112.52"
/>
<path stroke="#5a565c" vector-effect="non-scaling-stroke" d="
  M 538.02 112.67
  Q 538.38 113.13 538.62 113.14
  Q 618.35 118.38 689.79 153.78
  C 806.61 211.66 888.61 321.93 906.94 451.44
  C 908.08 459.50 908.95 469.64 910.05 478.75"
/>
<path stroke="#5a565c" vector-effect="non-scaling-stroke" d="
  M 910.50 481.95
  Q 909.94 482.02 909.98 482.75
  Q 911.64 511.66 908.85 540.48
  Q 903.56 595.14 882.65 645.89
  C 864.70 689.45 839.47 730.47 807.90 765.46
  Q 805.39 768.24 803.13 771.26"
/>
<path stroke="#5a565c" vector-effect="non-scaling-stroke" d="
  M 799.28 775.12
  Q 753.60 822.55 697.59 852.33
  Q 657.55 873.62 613.75 885.47
  C 602.78 888.44 591.71 891.27 580.51 893.25
  Q 547.63 899.07 514.25 899.50
  Q 508.89 899.57 492.78 899.26"
/>
<path stroke="#5a565c" vector-effect="non-scaling-stroke" d="
  M 492.78 899.26
  C 404.82 894.49 320.64 861.48 253.90 803.85
  Q 253.46 803.47 252.97 803.54"
/>
<path stroke="#5a565c" vector-effect="non-scaling-stroke" d="
  M 220.61 771.68
  Q 193.81 741.82 173.59 708.92
  C 138.01 651.04 116.67 582.72 115.51 514.50
  C 115.33 503.76 115.28 491.82 116.36 480.30
  C 116.72 476.46 116.61 472.46 117.25 468.68
  C 117.77 465.65 118.05 461.28 118.27 459.51
  C 125.31 404.65 143.76 351.52 172.91 304.40
  Q 198.04 263.76 230.83 229.80"
/>
<path stroke="#857f87" vector-effect="non-scaling-stroke" d="
  M 488.51 899.57
  L 492.78 899.26"
/>
<path stroke="#5a565c" vector-effect="non-scaling-stroke" d="
  M 491.97 112.54
  Q 485.50 114.01 478.82 113.70
  Q 478.34 113.68 477.91 113.90
  C 476.23 114.75 471.45 114.73 469.98 114.80
  Q 468.57 114.88 466.80 115.29
  C 464.22 115.89 461.33 115.88 458.94 116.30
  Q 456.99 116.65 454.25 116.96
  Q 444.77 118.04 423.06 123.18
  Q 419.42 124.04 415.76 124.77
  Q 414.26 125.06 412.44 125.66
  C 409.75 126.54 405.88 127.36 404.16 127.86
  C 358.54 140.93 315.01 162.02 276.96 190.44
  Q 276.60 190.71 275.70 191.18
  C 274.67 191.72 273.53 192.98 272.96 193.42
  Q 253.29 208.34 235.31 225.42"
/>
<path stroke="#5a565c" vector-effect="non-scaling-stroke" d="
  M 446.69 160.84
  C 437.42 167.23 427.61 167.73 416.51 167.09
  C 410.32 166.74 404.02 164.63 398.05 164.93"
/>
<path stroke="#5a565c" vector-effect="non-scaling-stroke" d="
  M 396.72 165.13
  Q 394.78 164.93 393.00 165.47
  C 383.31 168.42 374.86 176.02 372.99 186.25
  Q 372.86 186.99 373.43 187.72"
/>
<path stroke="#5a565c" vector-effect="non-scaling-stroke" d="
  M 373.13 189.51
  C 372.54 192.22 372.21 194.97 370.59 197.26
  C 363.47 207.35 354.08 210.82 342.25 212.94"
/>
<path stroke="#5a565c" vector-effect="non-scaling-stroke" d="
  M 334.97 212.94
  C 333.50 212.42 332.25 212.03 331.05 210.91
  C 320.42 201.06 303.94 202.33 294.29 213.00
  Q 292.50 214.99 290.53 219.44
  Q 288.19 224.69 285.05 229.49"
/>
<path stroke="#5a565c" vector-effect="non-scaling-stroke" d="
  M 280.71 233.80
  C 274.38 238.26 268.69 242.54 261.58 245.78
  Q 260.10 246.46 259.06 245.92
  Q 255.28 243.96 252.43 244.22"
/>
<path stroke="#5a565c" vector-effect="non-scaling-stroke" d="
  M 246.83 243.98
  Q 228.97 245.96 224.07 262.29
  Q 223.93 262.75 223.98 263.17
  Q 224.06 264.04 224.41 263.98"
/>
<path stroke="#5a565c" vector-effect="non-scaling-stroke" d="
  M 224.18 266.00
  Q 223.42 266.06 223.46 267.26
  Q 223.76 275.17 223.02 281.16
  C 222.78 283.01 222.07 284.63 221.38 286.36
  Q 217.23 296.78 206.28 299.35
  C 197.28 301.46 192.19 314.41 191.71 322.51
  Q 191.36 328.48 193.91 333.80
  C 194.40 334.81 194.25 335.80 193.93 336.75
  Q 189.13 351.14 184.41 365.55
  Q 179.97 379.15 171.96 391.01
  Q 168.34 396.38 158.65 407.92
  C 143.43 426.05 136.67 450.31 133.51 474.75
  Q 133.00 478.72 133.20 480.77
  Q 133.25 481.26 133.09 481.73
  Q 132.68 482.96 132.52 484.25
  Q 131.79 490.36 132.51 496.33"
/>
<path stroke="#5a565c" vector-effect="non-scaling-stroke" d="
  M 132.57 510.96
  Q 131.63 519.20 132.52 527.42
  Q 132.87 530.63 133.03 535.14
  Q 133.17 539.02 133.90 542.86
  C 134.12 543.99 133.96 545.17 134.12 546.49
  C 137.07 572.51 141.94 597.05 150.67 621.24
  C 151.13 622.52 152.17 623.62 153.25 624.25
  Q 167.57 632.60 183.21 637.78"
/>
<path stroke="#5a565c" vector-effect="non-scaling-stroke" d="
  M 189.02 639.71
  Q 198.85 643.22 211.00 645.51
  Q 231.13 649.31 247.98 651.10
  Q 249.27 651.23 249.32 650.40"
/>
<path stroke="#5a565c" vector-effect="non-scaling-stroke" d="
  M 251.99 650.81
  Q 259.52 652.64 266.99 651.66"
/>
<path stroke="#5a565c" vector-effect="non-scaling-stroke" d="
  M 291.10 651.53
  Q 296.90 652.48 303.25 651.17
  Q 303.89 651.04 304.32 650.86
  Q 304.75 650.68 305.21 650.73
  Q 309.80 651.30 314.19 649.80
  A 1.31 1.27 -49.9 0 1 314.78 649.74
  Q 318.03 650.20 321.03 648.69"
/>
<path stroke="#5a565c" vector-effect="non-scaling-stroke" d="
  M 321.72 648.54
  Q 321.73 649.04 322.75 648.88
  Q 326.40 648.32 330.04 647.64
  C 330.91 647.48 331.86 646.98 332.86 646.88
  Q 334.77 646.69 334.99 646.64
  Q 358.87 641.35 380.32 631.06
  Q 411.69 616.01 434.99 589.73"
/>
<path stroke="#5a565c" vector-effect="non-scaling-stroke" d="
  M 437.56 586.78
  Q 441.93 582.72 445.12 577.46"
/>
<path stroke="#5a565c" vector-effect="non-scaling-stroke" d="
  M 446.40 575.38
  Q 449.72 572.66 451.31 568.92
  Q 452.05 567.19 450.75 568.56
  L 443.45 576.33"
/>
<path stroke="#5a565c" vector-effect="non-scaling-stroke" d="
  M 439.71 579.62
  Q 418.29 597.46 397.11 608.11
  C 374.04 619.70 348.12 627.43 322.16 628.77"
/>
<path stroke="#5a565c" vector-effect="non-scaling-stroke" d="
  M 306.74 628.84
  C 283.91 627.15 262.11 621.62 241.17 612.12
  C 220.10 602.55 201.89 588.77 188.51 569.46
  Q 170.97 544.17 163.32 514.02
  C 161.78 507.94 162.05 501.59 160.82 495.52"
/>
<path stroke="#5a565c" vector-effect="non-scaling-stroke" d="
  M 160.70 487.70
  C 161.64 483.27 161.82 477.88 162.36 474.38
  C 166.30 448.84 178.55 424.80 194.84 404.98
  C 206.78 390.45 222.58 379.90 241.08 376.05
  Q 241.49 375.96 242.46 375.96
  C 244.36 375.97 246.08 373.41 246.80 371.60"
/>
<path stroke="#5a565c" vector-effect="non-scaling-stroke" d="
  M 250.24 368.36
  Q 256.90 363.95 264.37 361.87
  C 268.75 360.65 275.27 360.54 279.26 361.07
  C 286.92 362.07 293.09 367.98 298.90 373.09
  Q 302.52 376.28 306.51 375.72"
/>
<path stroke="#5a565c" vector-effect="non-scaling-stroke" d="
  M 307.75 375.69
  C 315.01 377.43 319.95 368.29 319.86 362.28"
/>
<path stroke="#5a565c" vector-effect="non-scaling-stroke" d="
  M 319.57 359.64
  C 320.09 351.13 311.97 347.34 304.82 347.76
  A 1.11 1.10 -6.3 0 1 303.66 346.84
  Q 302.89 342.24 304.74 337.97"
/>
<path stroke="#5a565c" vector-effect="non-scaling-stroke" d="
  M 306.41 335.98
  Q 307.97 335.27 309.39 334.45
  C 318.10 329.47 327.86 331.99 334.92 338.58
  C 339.45 342.79 345.24 349.80 351.25 351.49
  C 355.83 352.78 361.65 352.69 365.64 354.09
  Q 373.71 356.92 377.71 365.05"
/>
<path stroke="#5a565c" vector-effect="non-scaling-stroke" d="
  M 378.17 369.33
  Q 376.96 371.25 375.90 373.40
  C 374.56 376.11 368.91 377.97 366.04 379.56
  Q 360.55 382.59 360.13 387.91"
/>
<path stroke="#5a565c" vector-effect="non-scaling-stroke" d="
  M 360.19 391.94
  Q 360.95 396.94 366.25 398.29
  Q 373.30 400.10 380.96 396.40
  Q 381.46 396.16 381.16 395.92"
/>
<path stroke="#5a565c" vector-effect="non-scaling-stroke" d="
  M 381.16 395.92
  Q 381.55 396.10 381.73 396.00
  Q 387.91 392.22 390.45 385.93
  A 2.07 2.06 14.8 0 1 392.65 384.66
  Q 399.07 385.54 404.24 389.31
  C 409.30 393.01 409.88 396.17 409.08 402.22
  Q 408.53 406.39 409.06 407.75
  Q 412.37 416.37 421.04 416.74"
/>
<path stroke="#5a565c" vector-effect="non-scaling-stroke" d="
  M 424.61 416.74
  Q 434.03 415.83 434.97 406.25
  Q 435.04 405.58 434.75 405.01"
/>
<path stroke="#5a565c" vector-effect="non-scaling-stroke" d="
  M 434.55 404.37
  C 435.97 400.83 431.31 397.12 428.44 395.70"
/>
<path stroke="#5a565c" vector-effect="non-scaling-stroke" d="
  M 427.85 391.82
  C 428.98 390.69 429.42 390.09 431.12 389.70
  Q 432.19 389.46 433.16 388.99"
/>
<path stroke="#5a565c" vector-effect="non-scaling-stroke" d="
  M 437.78 389.02
  Q 449.47 390.71 456.58 399.39
  Q 460.32 403.95 458.70 409.49
  C 458.19 411.21 456.94 413.27 456.66 415.27
  C 455.54 423.28 462.94 428.46 470.26 428.78
  Q 481.82 429.29 483.75 418.88"
/>
<path stroke="#5a565c" vector-effect="non-scaling-stroke" d="
  M 483.61 414.04
  Q 483.99 412.07 482.50 409.92"
/>
<path stroke="#5a565c" vector-effect="non-scaling-stroke" d="
  M 482.27 408.80
  Q 482.81 408.25 483.37 408.35
  C 496.03 410.44 500.69 420.11 502.84 431.51
  Q 504.99 442.91 505.69 454.51
  Q 505.72 454.98 506.15 455.98"
/>
<path stroke="#5a565c" vector-effect="non-scaling-stroke" d="
  M 506.37 458.48
  L 506.40 474.00"
/>
<path stroke="#5a565c" vector-effect="non-scaling-stroke" d="
  M 506.20 477.75
  Q 505.26 481.77 505.06 485.89
  C 504.88 489.66 504.20 492.73 503.64 496.23
  Q 499.43 522.97 487.96 547.45
  Q 470.76 584.13 443.78 614.60"
/>
<path stroke="#5a565c" vector-effect="non-scaling-stroke" d="
  M 439.26 619.54
  Q 436.24 621.49 434.23 624.57"
/>
<path stroke="#5a565c" vector-effect="non-scaling-stroke" d="
  M 428.91 629.27
  Q 405.90 649.51 375.75 665.31
  Q 322.08 693.44 264.39 701.79
  C 262.50 702.06 260.03 702.11 257.87 702.51
  Q 255.28 702.99 253.06 703.01
  Q 248.09 703.07 243.16 704.19"
/>
<path stroke="#5a565c" vector-effect="non-scaling-stroke" d="
  M 241.23 704.35
  L 215.61 704.31"
/>
<path stroke="#5a565c" vector-effect="non-scaling-stroke" d="
  M 213.13 704.17
  Q 211.12 703.34 206.99 703.06
  Q 201.62 702.70 189.48 698.97
  Q 188.90 698.79 188.38 698.94"
/>
<path stroke="#5a565c" vector-effect="non-scaling-stroke" d="
  M 187.90 699.11
  Q 188.26 699.04 188.03 698.72
  Q 187.94 698.59 187.77 698.52
  Q 187.49 698.41 187.38 698.47
  A 0.94 0.93 -30.2 0 0 187.04 699.74
  Q 202.83 727.10 223.27 750.96
  Q 224.46 752.35 225.75 752.00
  C 251.90 744.70 279.81 734.11 306.26 722.01
  C 319.05 716.15 331.48 709.52 343.70 702.61
  Q 372.86 686.14 398.76 664.80
  Q 413.57 652.59 427.06 638.95"
/>
<path stroke="#5a565c" vector-effect="non-scaling-stroke" d="
  M 434.27 632.78
  L 440.79 628.96"
/>
<path stroke="#5a565c" vector-effect="non-scaling-stroke" d="
  M 443.31 632.80
  Q 439.87 640.56 436.52 648.25
  Q 433.08 656.18 424.74 668.78
  C 415.91 682.12 406.18 695.07 395.35 706.86
  Q 392.77 709.66 390.69 712.82"
/>
<path stroke="#5a565c" vector-effect="non-scaling-stroke" d="
  M 377.72 725.67
  C 345.52 755.31 308.49 778.74 268.62 796.12
  A 1.05 1.04 -37.7 0 0 268.39 797.90
  L 284.08 810.13
  A 1.38 1.38 0.0 0 0 285.14 810.41
  Q 288.03 809.95 290.27 808.01"
/>
<path stroke="#5a565c" vector-effect="non-scaling-stroke" d="
  M 290.27 808.01
  Q 290.92 807.97 291.50 807.67
  C 333.04 786.95 371.78 761.71 405.13 729.39
  Q 437.94 697.59 461.83 658.65
  Q 475.94 635.66 484.38 616.91
  Q 490.63 603.00 497.65 589.47
  Q 500.08 584.79 504.13 581.64
  C 513.51 574.36 519.04 590.85 520.27 597.01
  Q 521.18 601.56 521.78 606.18
  Q 521.81 606.42 521.95 606.63
  Q 522.10 606.87 522.20 607.06"
/>
<path stroke="#5a565c" vector-effect="non-scaling-stroke" d="
  M 522.35 608.44
  L 522.42 616.73"
/>
<path stroke="#5a565c" vector-effect="non-scaling-stroke" d="
  M 522.13 621.75
  Q 521.56 624.62 520.79 632.75
  Q 519.49 646.36 512.65 665.92
  Q 500.50 700.68 476.01 727.64
  C 460.56 744.65 441.81 757.85 422.07 770.33
  C 404.08 781.70 379.09 794.56 361.36 802.84
  Q 334.72 815.28 307.09 825.34
  Q 306.72 825.48 306.53 825.98"
/>
<path stroke="#5a565c" vector-effect="non-scaling-stroke" d="
  M 306.31 826.23
  Q 305.74 825.44 305.31 826.60
  A 0.72 0.71 19.7 0 0 305.75 827.52
  C 308.97 828.63 312.16 830.59 314.72 831.69
  Q 321.81 834.74 328.98 837.66
  C 332.50 839.10 335.10 838.90 338.48 837.71
  C 340.23 837.10 342.42 836.82 343.82 836.47
  Q 407.97 820.60 468.58 794.27
  C 503.75 778.99 534.51 762.15 561.99 738.12
  Q 566.95 733.78 571.77 729.31
  Q 589.37 712.94 603.43 693.46
  Q 623.41 665.78 634.23 633.37
  Q 639.56 617.39 642.62 600.82
  Q 642.88 599.39 643.51 596.75
  Q 644.52 592.53 644.89 587.12
  C 645.03 585.04 645.85 582.92 645.85 580.75
  Q 645.85 576.24 646.68 572.51
  Q 647.49 568.83 646.42 562.68"
/>
<path stroke="#5a565c" vector-effect="non-scaling-stroke" d="
  M 646.86 558.99
  L 646.89 547.52"
/>
<path stroke="#5a565c" vector-effect="non-scaling-stroke" d="
  M 646.58 542.74
  Q 647.25 537.56 646.20 532.53
  C 645.81 530.64 645.84 528.80 645.51 526.76
  Q 643.70 515.51 640.60 504.99
  C 637.11 493.10 630.80 479.04 625.71 466.26
  Q 621.38 455.38 620.13 447.52
  Q 619.44 443.16 623.04 440.57
  C 624.10 439.80 625.72 439.46 627.03 438.77"
/>
<path stroke="#5a565c" vector-effect="non-scaling-stroke" d="
  M 627.67 438.64
  Q 628.95 439.33 630.47 438.61"
/>
<path stroke="#5a565c" vector-effect="non-scaling-stroke" d="
  M 631.19 438.88
  C 639.57 441.05 645.70 443.23 653.74 448.99
  C 674.35 463.78 692.53 484.48 700.43 508.49
  Q 704.79 521.77 706.65 538.81
  C 706.74 539.62 707.15 540.60 707.11 541.57
  Q 707.05 543.34 707.06 543.44
  C 708.05 558.13 707.59 569.04 707.00 581.97
  C 706.95 583.22 707.30 584.66 707.03 586.14
  Q 706.48 589.11 706.47 589.15
  C 702.58 633.75 689.50 677.98 667.08 716.85
  Q 644.70 755.67 609.88 783.82
  Q 585.24 803.74 563.47 816.94
  Q 549.91 825.16 544.94 828.38"
/>
<path stroke="#5a565c" vector-effect="non-scaling-stroke" d="
  M 528.30 838.12
  Q 525.78 837.66 522.81 840.23
  Q 522.78 840.26 522.78 840.30
  Q 522.77 840.45 522.85 840.57
  A 0.28 0.28 0.0 0 0 523.19 840.69
  Q 527.22 839.16 531.25 837.63
  Q 546.75 831.74 562.02 825.24
  C 564.18 824.32 566.56 822.98 568.88 821.97
  Q 573.42 820.01 574.06 819.70
  Q 635.08 790.65 687.34 748.16"
/>
<path stroke="#5a565c" vector-effect="non-scaling-stroke" d="
  M 710.55 726.44
  Q 710.69 726.49 710.82 726.54
  Q 711.01 726.61 711.15 726.47
  C 731.85 705.45 746.65 680.55 753.56 651.75
  Q 757.96 633.46 760.83 614.86
  Q 762.42 604.54 764.39 594.29
  Q 765.60 587.97 766.82 585.01
  C 774.37 566.65 785.34 583.17 789.68 591.38
  C 799.79 610.50 805.38 631.56 807.62 653.00
  Q 807.69 653.70 808.23 654.25"
/>
<path stroke="#5a565c" vector-effect="non-scaling-stroke" d="
  M 808.43 655.94
  Q 807.91 656.43 807.95 657.01
  Q 809.66 679.69 806.76 697.75
  C 802.50 724.23 790.77 747.65 774.75 770.06
  Q 773.86 771.30 775.19 770.53
  Q 777.97 768.92 778.55 767.15"
/>
<path stroke="#5a565c" vector-effect="non-scaling-stroke" d="
  M 785.01 762.04
  Q 795.56 753.77 804.36 743.60
  C 813.59 732.93 821.89 722.57 829.21 711.01
  C 831.92 706.73 832.39 703.28 831.76 698.50"
/>
<path stroke="#5a565c" vector-effect="non-scaling-stroke" d="
  M 831.90 695.80
  Q 834.00 681.28 832.17 666.73
  Q 831.83 664.01 831.85 660.74
  C 831.87 657.11 830.99 654.37 830.80 651.21
  Q 830.65 648.84 830.65 648.80
  Q 826.76 617.66 817.23 587.77
  Q 809.99 565.07 800.08 543.41
  Q 799.78 542.74 799.39 542.79"
/>
<path stroke="#5a565c" vector-effect="non-scaling-stroke" d="
  M 799.39 542.79
  Q 799.56 542.29 799.20 541.50
  Q 788.88 518.61 775.61 498.48
  C 769.98 489.95 763.02 481.22 756.36 472.91
  Q 754.36 470.41 753.43 467.76
  A 2.41 2.40 -32.1 0 1 754.01 465.26
  C 756.39 462.92 760.35 463.79 763.40 463.98
  C 771.47 464.49 780.79 468.11 788.01 471.68
  C 823.73 489.30 851.37 520.06 870.72 554.29
  Q 875.22 562.24 879.61 570.24"
/>
<path stroke="#5a565c" vector-effect="non-scaling-stroke" d="
  M 881.91 574.70
  Q 881.34 575.34 882.45 576.00
  A 0.26 0.25 -65.5 0 0 882.82 575.86
  C 885.95 566.09 888.63 555.91 889.91 545.81
  C 890.18 543.68 890.98 541.73 890.91 539.49
  C 890.79 535.63 892.49 534.18 890.09 530.17
  Q 863.70 486.03 822.38 456.60
  Q 810.33 448.01 798.26 439.46
  C 792.99 435.74 786.48 427.82 793.76 423.04
  Q 798.55 419.90 805.35 419.13"
/>
<path stroke="#5a565c" vector-effect="non-scaling-stroke" d="
  M 814.46 418.97
  Q 822.54 420.67 826.49 422.44
  Q 842.44 429.58 851.39 444.56
  C 856.06 452.38 858.77 461.32 869.27 462.49
  C 871.58 462.75 873.48 462.97 875.05 461.47
  Q 881.94 454.88 890.67 460.30"
/>
<path stroke="#5a565c" vector-effect="non-scaling-stroke" d="
  M 890.71 459.96
  Q 890.47 460.32 891.00 460.71
  A 0.60 0.60 0.0 0 0 891.95 460.29
  Q 892.09 458.80 890.96 457.06"
/>
<path stroke="#5a565c" vector-effect="non-scaling-stroke" d="
  M 890.79 456.51
  Q 890.89 455.70 890.74 455.03
  C 888.05 443.55 884.44 432.60 880.98 421.35
  C 879.79 417.49 879.03 413.48 878.14 409.53
  C 877.77 407.91 877.84 406.11 877.45 404.36
  C 876.72 401.15 876.83 398.28 876.29 395.16
  C 875.67 391.60 875.94 387.84 874.96 384.17
  C 874.71 383.26 874.89 382.34 874.65 381.38
  Q 871.16 367.73 859.40 360.08
  C 854.89 357.15 847.50 354.11 842.26 355.18
  C 839.84 355.67 837.86 357.86 836.00 359.49
  Q 830.42 364.41 823.01 365.12
  C 815.30 365.86 803.57 362.58 798.66 355.27
  C 796.78 352.47 799.56 348.78 799.51 345.58
  C 799.35 336.24 791.00 329.76 782.49 327.59
  Q 777.75 326.38 774.99 327.28
  C 766.90 329.93 756.84 333.63 749.27 334.32
  Q 745.82 334.63 744.90 335.10"
/>
<path stroke="#5a565c" vector-effect="non-scaling-stroke" d="
  M 742.39 335.44
  Q 738.26 334.89 734.12 334.92
  Q 728.99 334.95 725.90 334.50
  C 718.19 333.36 712.61 332.41 704.93 328.03
  C 701.66 326.17 695.99 321.71 695.78 318.26
  C 695.55 314.50 696.17 309.35 693.22 306.52
  Q 688.51 302.01 681.46 302.15"
/>
<path stroke="#5a565c" vector-effect="non-scaling-stroke" d="
  M 677.51 302.02
  Q 675.98 301.76 675.00 302.70
  Q 668.35 309.09 660.28 310.97"
/>
<path stroke="#5a565c" vector-effect="non-scaling-stroke" d="
  M 654.30 311.16
  C 648.28 309.22 643.65 308.41 640.03 302.69
  A 2.08 2.07 59.7 0 1 640.79 299.76
  C 642.42 298.87 647.84 295.29 646.86 292.85"
/>
<path stroke="#5a565c" vector-effect="non-scaling-stroke" d="
  M 646.87 291.52
  Q 647.21 288.24 643.52 287.22"
/>
<path stroke="#5a565c" vector-effect="non-scaling-stroke" d="
  M 643.52 287.22
  C 641.33 283.80 632.08 288.39 630.05 280.74
  C 628.90 276.41 631.52 275.43 633.10 272.22"
/>
<path stroke="#5a565c" vector-effect="non-scaling-stroke" d="
  M 633.48 272.01
  Q 635.58 271.28 637.60 269.68"
/>
<path stroke="#5a565c" vector-effect="non-scaling-stroke" d="
  M 640.30 268.66
  Q 643.10 268.96 645.95 268.02"
/>
<path stroke="#5a565c" vector-effect="non-scaling-stroke" d="
  M 651.35 268.12
  C 662.03 269.43 671.07 274.06 672.91 285.25
  Q 673.23 287.21 675.17 289.00"
/>
<path stroke="#5a565c" vector-effect="non-scaling-stroke" d="
  M 675.17 289.00
  Q 678.89 293.07 683.84 292.66"
/>
<path stroke="#5a565c" vector-effect="non-scaling-stroke" d="
  M 687.78 292.71
  Q 692.29 293.03 695.08 289.31
  C 699.67 283.17 694.42 277.60 689.69 273.06
  Q 687.29 270.76 687.79 266.41"
/>
<path stroke="#5a565c" vector-effect="non-scaling-stroke" d="
  M 694.81 263.65
  Q 696.73 264.15 698.32 263.62"
/>
<path stroke="#5a565c" vector-effect="non-scaling-stroke" d="
  M 701.76 264.06
  C 754.95 274.81 800.03 305.56 841.23 341.97"
/>
<path stroke="#5a565c" vector-effect="non-scaling-stroke" d="
  M 844.83 344.95
  Q 844.68 346.09 846.36 346.69
  A 0.61 0.61 0.0 0 0 847.14 345.90
  C 841.65 330.82 833.49 317.19 825.78 303.29
  Q 822.42 297.24 816.71 284.99
  C 809.50 269.53 795.97 263.74 780.24 259.29
  C 776.27 258.17 773.34 256.49 769.97 254.43"
/>
<path stroke="#5a565c" vector-effect="non-scaling-stroke" d="
  M 765.32 249.75
  C 763.15 246.13 761.19 243.43 761.37 238.64
  Q 761.51 234.90 761.14 233.37
  C 760.59 231.13 758.83 226.84 756.40 226.00"
/>
<path stroke="#5a565c" vector-effect="non-scaling-stroke" d="
  M 756.09 225.77
  Q 756.25 225.71 756.20 225.49
  Q 756.17 225.36 756.04 225.25
  Q 748.92 219.18 740.03 219.33"
/>
<path stroke="#5a565c" vector-effect="non-scaling-stroke" d="
  M 736.09 219.21
  Q 727.71 219.30 723.66 226.52
  Q 723.41 226.97 722.90 226.99
  C 712.95 227.48 696.94 222.38 691.49 213.45
  Q 690.58 211.95 689.41 210.71"
/>
<path stroke="#5a565c" vector-effect="non-scaling-stroke" d="
  M 687.43 205.75
  Q 687.48 204.37 688.02 203.41
  Q 688.26 202.99 688.71 202.81
  Q 698.04 199.22 697.98 190.02
  Q 697.94 182.30 692.78 175.72
  Q 685.80 166.82 676.09 166.28"
/>
<path stroke="#5a565c" vector-effect="non-scaling-stroke" d="
  M 669.88 166.51
  C 664.90 165.33 659.37 170.06 657.09 174.00
  C 654.98 177.65 648.85 176.42 645.91 178.11"
/>
<path stroke="#5a565c" vector-effect="non-scaling-stroke" d="
  M 643.35 178.41
  Q 640.85 177.48 638.50 178.39"
/>
<path stroke="#5a565c" vector-effect="non-scaling-stroke" d="
  M 636.28 178.05
  L 625.68 175.30"
/>
<path stroke="#5a565c" vector-effect="non-scaling-stroke" d="
  M 618.19 169.70
  L 616.65 166.71
  A 1.35 1.34 38.6 0 1 616.54 165.75
  C 618.13 159.90 619.68 156.07 616.10 150.29
  C 610.41 141.10 599.75 136.91 589.25 139.95
  C 583.84 141.51 577.84 144.79 572.05 146.03
  Q 565.78 147.38 559.21 148.02"
/>
<path stroke="#5a565c" vector-effect="non-scaling-stroke" d="
  M 542.47 147.96
  Q 536.19 146.83 529.97 147.34"
/>
<path stroke="#5a565c" vector-effect="non-scaling-stroke" d="
  M 528.15 146.92
  L 524.00 146.03"
/>
<path stroke="#5a565c" vector-effect="non-scaling-stroke" d="
  M 524.00 146.03
  Q 523.09 139.66 517.99 136.24
  C 501.36 125.06 479.17 125.90 462.08 136.83
  Q 457.89 139.52 454.73 143.88
  Q 453.26 145.91 452.26 149.51
  Q 451.10 153.70 449.34 157.76"
/>
<path stroke="#5a565c" vector-effect="non-scaling-stroke" d="
  M 191.76 441.82
  Q 191.51 441.72 191.42 441.92
  Q 185.97 454.73 184.07 468.52
  C 183.86 470.06 183.46 472.26 183.38 473.59
  C 180.72 517.52 196.63 559.58 232.51 586.14
  C 237.01 589.47 240.28 591.06 245.60 590.24
  Q 246.30 590.13 248.48 589.94
  Q 249.56 589.84 249.46 589.01"
/>
<path stroke="#5a565c" vector-effect="non-scaling-stroke" d="
  M 249.54 586.66
  C 245.30 581.80 240.15 576.98 236.50 572.45
  C 215.95 546.96 203.92 515.68 198.33 483.63
  Q 198.23 483.08 198.00 482.56
  Q 197.79 482.11 197.80 481.61
  C 197.86 479.08 196.97 476.82 196.78 474.40
  Q 196.65 472.65 196.23 470.95
  C 195.45 467.80 196.09 465.12 194.59 462.03"
/>
<path stroke="#5a565c" vector-effect="non-scaling-stroke" d="
  M 194.44 461.49
  Q 194.96 458.04 194.35 454.76
  Q 193.80 451.85 193.79 449.64
  Q 193.78 446.02 192.95 442.48"
/>
<path stroke="#5a565c" vector-effect="non-scaling-stroke" d="
  M 317.77 584.67
  Q 324.61 584.68 330.07 580.83
  Q 344.55 570.61 346.86 552.38
  C 348.74 537.56 340.15 522.45 324.25 520.96
  Q 323.69 520.91 323.49 521.16"
/>
<path stroke="#5a565c" vector-effect="non-scaling-stroke" d="
  M 322.88 521.38
  Q 321.04 520.35 320.33 522.29
  A 0.83 0.83 0.0 0 0 320.73 523.30
  C 325.81 525.95 330.56 530.03 332.43 535.50
  C 336.54 547.54 329.31 564.01 319.76 571.22
  C 302.70 584.10 284.44 573.13 279.34 554.95
  C 278.60 552.30 277.88 550.10 277.87 547.29
  C 277.86 542.75 277.63 538.22 278.55 533.94
  Q 281.12 521.83 289.05 512.79
  Q 299.11 501.32 314.56 497.19
  Q 318.84 496.05 323.72 495.04"
/>
<path stroke="#5a565c" vector-effect="non-scaling-stroke" d="
  M 332.19 494.95
  Q 357.77 499.20 366.19 522.84
  A 1.91 1.91 0.0 0 0 368.40 524.06
  Q 378.21 521.91 386.00 527.46
  Q 393.80 533.00 396.51 543.31
  Q 396.97 545.05 397.54 546.78
  C 398.47 549.65 398.01 552.67 398.05 555.62
  C 398.08 557.50 397.44 559.15 397.07 560.98
  C 395.22 570.02 388.18 579.84 381.58 585.59
  C 369.98 595.71 352.52 602.87 337.25 604.95
  C 334.04 605.38 331.05 606.07 328.21 606.11
  C 323.07 606.20 318.49 606.50 312.94 606.29
  Q 308.77 606.13 304.58 606.44"
/>
<path stroke="#5a565c" vector-effect="non-scaling-stroke" d="
  M 302.21 605.90
  L 295.44 604.94"
/>
<path stroke="#5a565c" vector-effect="non-scaling-stroke" d="
  M 294.60 604.94
  Q 292.29 603.96 290.09 604.06
  Q 288.97 604.11 290.02 604.50
  L 296.07 606.73"
/>
<path stroke="#5a565c" vector-effect="non-scaling-stroke" d="
  M 297.38 607.09
  Q 307.82 610.86 319.01 611.91
  Q 319.56 611.96 319.45 611.57"
/>
<path stroke="#5a565c" vector-effect="non-scaling-stroke" d="
  M 320.97 611.69
  Q 320.82 611.63 320.77 611.79
  A 0.18 0.18 0.0 0 0 320.91 612.03
  Q 333.25 613.91 345.58 612.32
  C 349.20 611.86 353.35 611.58 357.24 610.81
  Q 374.51 607.40 389.28 599.02
  Q 390.05 598.59 390.21 597.93"
/>
<path stroke="#5a565c" vector-effect="non-scaling-stroke" d="
  M 390.21 597.93
  Q 390.90 597.92 392.13 597.14
  Q 409.46 586.07 420.49 569.75
  Q 421.03 568.95 420.95 568.23"
/>
<path stroke="#5a565c" vector-effect="non-scaling-stroke" d="
  M 420.95 568.23
  Q 421.53 568.06 421.92 567.40
  Q 428.23 556.69 430.63 544.50
  Q 431.04 542.44 430.87 540.34
  Q 430.85 540.00 431.03 539.72
  C 432.43 537.63 431.91 527.06 430.91 524.01
  Q 430.76 523.54 430.82 523.05
  Q 430.94 522.01 430.80 521.23
  C 426.67 499.12 410.79 482.51 390.56 473.62
  Q 375.79 467.13 359.72 465.44
  Q 355.17 464.96 350.63 464.33
  Q 347.82 463.95 343.83 464.41
  Q 338.83 464.99 337.12 465.16
  C 304.17 468.30 274.72 490.25 268.32 523.81
  C 267.75 526.76 267.23 531.14 267.29 533.94
  C 267.64 551.17 273.54 565.92 287.72 576.50
  Q 297.50 583.80 309.20 584.77"
/>
<path stroke="#5a565c" vector-effect="non-scaling-stroke" d="
  M 527.86 247.45
  C 527.30 245.59 529.18 243.84 530.57 242.90
  C 532.09 241.86 534.65 241.79 536.53 241.48
  C 539.81 240.94 541.02 239.17 542.80 236.54
  C 546.84 230.56 545.49 223.92 540.04 219.68
  C 531.07 212.71 514.95 207.82 504.16 214.17
  Q 501.68 215.62 502.11 217.79"
/>
<path stroke="#5a565c" vector-effect="non-scaling-stroke" d="
  M 528.69 250.79
  Q 532.98 254.75 540.01 254.01
  Q 544.18 253.57 548.24 252.49
  Q 549.21 252.24 549.74 251.61"
/>
<path stroke="#5a565c" vector-effect="non-scaling-stroke" d="
  M 550.44 251.36
  Q 551.83 251.84 552.17 252.75
  Q 553.46 256.14 555.31 257.78"
/>
<path stroke="#5a565c" vector-effect="non-scaling-stroke" d="
  M 556.21 258.46
  Q 555.83 258.59 556.61 259.13
  C 559.49 261.10 561.87 261.27 565.52 260.57
  Q 569.85 259.75 574.22 259.33"
/>
<path stroke="#5a565c" vector-effect="non-scaling-stroke" d="
  M 589.11 278.97
  Q 588.47 280.68 587.82 282.38
  C 583.97 292.44 569.66 291.52 561.69 288.93
  A 2.33 2.32 6.7 0 1 560.09 286.92
  C 559.11 275.77 548.59 267.38 537.86 266.76
  Q 531.52 266.39 526.51 269.05
  Q 521.64 271.64 519.77 276.40
  A 1.66 1.65 -74.6 0 1 517.97 277.43
  C 510.96 276.30 502.57 273.72 499.18 267.14
  C 496.52 262.01 501.99 258.17 498.37 253.12
  C 493.52 246.37 483.96 243.43 475.95 244.95"
/>
<path stroke="#5a565c" vector-effect="non-scaling-stroke" d="
  M 475.48 245.12
  Q 470.31 245.25 465.78 247.87
  C 463.84 248.99 462.73 250.69 459.97 250.36
  C 455.22 249.81 450.94 250.36 446.60 249.13
  Q 446.12 249.00 445.78 248.63
  Q 440.14 242.47 431.92 239.72"
/>
<path stroke="#5a565c" vector-effect="non-scaling-stroke" d="
  M 428.41 236.99
  C 427.52 234.18 427.36 231.34 429.85 229.26
  Q 432.81 226.79 436.87 226.20"
/>
<path stroke="#5a565c" vector-effect="non-scaling-stroke" d="
  M 438.74 227.49
  C 442.55 233.02 450.31 235.27 455.99 231.27
  C 458.65 229.39 461.14 224.84 463.66 221.87"
/>
<path stroke="#5a565c" vector-effect="non-scaling-stroke" d="
  M 472.31 218.66
  Q 475.01 219.14 477.80 218.67"
/>
<path stroke="#5a565c" vector-effect="non-scaling-stroke" d="
  M 478.15 218.79
  L 482.52 221.14"
/>
<path stroke="#5a565c" vector-effect="non-scaling-stroke" d="
  M 484.77 224.72
  Q 488.27 234.41 497.89 234.87"
/>
<path stroke="#5a565c" vector-effect="non-scaling-stroke" d="
  M 503.05 234.74
  Q 510.26 234.17 511.37 228.42
  C 512.39 223.11 509.14 218.82 503.72 218.26"
/>
<path stroke="#5a565c" vector-effect="non-scaling-stroke" d="
  M 601.09 473.93
  Q 602.54 475.40 603.99 476.86
  C 607.41 480.30 609.30 485.52 610.73 490.26
  C 614.35 502.30 617.18 515.02 617.89 525.38
  C 620.42 562.50 611.40 598.62 594.67 631.98
  Q 570.95 679.31 539.31 716.27
  Q 536.05 720.08 531.84 724.47
  Q 528.03 728.44 524.14 732.44"
/>
<path stroke="#5a565c" vector-effect="non-scaling-stroke" d="
  M 521.45 735.06
  L 513.19 741.69"
/>
<path stroke="#5a565c" vector-effect="non-scaling-stroke" d="
  M 515.49 735.45
  Q 516.83 734.50 518.45 732.45
  Q 526.64 722.07 532.04 714.55
  C 555.48 681.94 570.19 645.61 573.67 604.67
  C 573.98 600.98 574.62 596.25 574.81 592.01
  C 575.35 579.57 576.13 567.49 575.41 555.00
  Q 574.97 547.44 574.39 539.89
  Q 573.20 524.24 570.51 508.80
  C 568.66 498.21 567.06 491.83 573.07 484.28
  Q 580.22 475.30 592.69 473.04"
/>
<path stroke="#5a565c" vector-effect="non-scaling-stroke" d="
  M 724.32 642.61
  Q 725.40 643.27 727.13 641.63
  Q 739.61 629.78 746.92 614.21
  C 760.26 585.79 764.92 550.83 746.23 523.51
  C 744.49 520.97 736.62 510.17 733.05 516.89
  C 730.74 521.22 731.69 529.91 732.30 534.81
  Q 734.32 550.88 735.17 562.50
  Q 737.76 597.70 728.05 632.50
  Q 726.50 638.04 725.05 640.87"
/>
<path stroke="#5a565c" vector-effect="non-scaling-stroke" d="
  M 421.58 508.23
  Q 420.35 506.81 419.35 505.18
  C 415.17 498.37 408.76 492.74 402.06 488.60
  C 393.97 483.61 386.45 480.36 377.25 480.68
  Q 374.56 480.77 372.07 483.19
  A 1.72 1.71 37.3 0 0 372.44 485.93
  Q 375.30 487.49 378.91 489.01
  Q 397.20 496.68 408.65 512.84
  Q 422.30 532.07 418.28 555.96"
/>
<path stroke="#5a565c" vector-effect="non-scaling-stroke" d="
  M 421.58 508.23
  C 422.51 511.16 424.44 514.36 424.87 517.31
  C 425.18 519.47 425.82 521.91 426.03 523.69
  Q 427.44 535.69 424.38 547.36
  C 423.62 550.28 422.14 553.53 421.13 556.72"
/>
<path stroke="#5a565c" vector-effect="non-scaling-stroke" d="
  M 418.27 562.18
  Q 417.18 563.02 416.32 562.94"
/>
</g>
<path fill="#857f87" d="
  M 535.05 112.43
  Q 535.04 112.95 534.75 112.94
  C 523.28 112.45 511.85 112.23 500.39 112.82
  Q 496.52 113.01 492.66 112.52
  Q 513.92 111.39 535.05 112.43
  Z"
/>
<path fill="#857f87" d="
  M 491.97 112.54
  Q 485.50 114.01 478.82 113.70
  Q 478.34 113.68 477.91 113.90
  C 476.23 114.75 471.45 114.73 469.98 114.80
  Q 468.57 114.88 466.80 115.29
  C 464.22 115.89 461.33 115.88 458.94 116.30
  Q 456.99 116.65 454.25 116.96
  Q 444.77 118.04 423.06 123.18
  Q 419.42 124.04 415.76 124.77
  Q 414.26 125.06 412.44 125.66
  C 409.75 126.54 405.88 127.36 404.16 127.86
  C 358.54 140.93 315.01 162.02 276.96 190.44
  Q 276.60 190.71 275.70 191.18
  C 274.67 191.72 273.53 192.98 272.96 193.42
  Q 253.29 208.34 235.31 225.42
  C 262.96 197.36 296.36 174.18 331.23 156.02
  Q 335.80 153.65 341.39 151.13
  C 353.24 145.81 367.37 139.25 375.59 136.59
  C 384.46 133.72 394.07 130.30 402.20 127.94
  Q 446.15 115.15 491.97 112.54
  Z"
/>
<path fill="#2e2c31" d="
  M 491.97 112.54
  L 492.66 112.52
  Q 496.52 113.01 500.39 112.82
  C 511.85 112.23 523.28 112.45 534.75 112.94
  Q 535.04 112.95 535.05 112.43
  L 538.02 112.67
  Q 538.38 113.13 538.62 113.14
  Q 618.35 118.38 689.79 153.78
  C 806.61 211.66 888.61 321.93 906.94 451.44
  C 908.08 459.50 908.95 469.64 910.05 478.75
  L 910.50 481.95
  Q 909.94 482.02 909.98 482.75
  Q 911.64 511.66 908.85 540.48
  Q 903.56 595.14 882.65 645.89
  C 864.70 689.45 839.47 730.47 807.90 765.46
  Q 805.39 768.24 803.13 771.26
  Q 801.46 773.78 799.28 775.12
  Q 753.60 822.55 697.59 852.33
  Q 657.55 873.62 613.75 885.47
  C 602.78 888.44 591.71 891.27 580.51 893.25
  Q 547.63 899.07 514.25 899.50
  Q 508.89 899.57 492.78 899.26
  C 404.82 894.49 320.64 861.48 253.90 803.85
  Q 253.46 803.47 252.97 803.54
  Q 235.60 788.60 220.61 771.68
  Q 193.81 741.82 173.59 708.92
  C 138.01 651.04 116.67 582.72 115.51 514.50
  C 115.33 503.76 115.28 491.82 116.36 480.30
  C 116.72 476.46 116.61 472.46 117.25 468.68
  C 117.77 465.65 118.05 461.28 118.27 459.51
  C 125.31 404.65 143.76 351.52 172.91 304.40
  Q 198.04 263.76 230.83 229.80
  L 235.31 225.42
  Q 253.29 208.34 272.96 193.42
  C 273.53 192.98 274.67 191.72 275.70 191.18
  Q 276.60 190.71 276.96 190.44
  C 315.01 162.02 358.54 140.93 404.16 127.86
  C 405.88 127.36 409.75 126.54 412.44 125.66
  Q 414.26 125.06 415.76 124.77
  Q 419.42 124.04 423.06 123.18
  Q 444.77 118.04 454.25 116.96
  Q 456.99 116.65 458.94 116.30
  C 461.33 115.88 464.22 115.89 466.80 115.29
  Q 468.57 114.88 469.98 114.80
  C 471.45 114.73 476.23 114.75 477.91 113.90
  Q 478.34 113.68 478.82 113.70
  Q 485.50 114.01 491.97 112.54
  Z
  M 449.34 157.76
  Q 448.43 159.45 446.69 160.84
  C 437.42 167.23 427.61 167.73 416.51 167.09
  C 410.32 166.74 404.02 164.63 398.05 164.93
  Q 397.39 165.27 396.72 165.13
  Q 394.78 164.93 393.00 165.47
  C 383.31 168.42 374.86 176.02 372.99 186.25
  Q 372.86 186.99 373.43 187.72
  L 373.13 189.51
  C 372.54 192.22 372.21 194.97 370.59 197.26
  C 363.47 207.35 354.08 210.82 342.25 212.94
  L 334.97 212.94
  C 333.50 212.42 332.25 212.03 331.05 210.91
  C 320.42 201.06 303.94 202.33 294.29 213.00
  Q 292.50 214.99 290.53 219.44
  Q 288.19 224.69 285.05 229.49
  L 280.71 233.80
  C 274.38 238.26 268.69 242.54 261.58 245.78
  Q 260.10 246.46 259.06 245.92
  Q 255.28 243.96 252.43 244.22
  L 246.83 243.98
  Q 228.97 245.96 224.07 262.29
  Q 223.93 262.75 223.98 263.17
  Q 224.06 264.04 224.41 263.98
  L 224.18 266.00
  Q 223.42 266.06 223.46 267.26
  Q 223.76 275.17 223.02 281.16
  C 222.78 283.01 222.07 284.63 221.38 286.36
  Q 217.23 296.78 206.28 299.35
  C 197.28 301.46 192.19 314.41 191.71 322.51
  Q 191.36 328.48 193.91 333.80
  C 194.40 334.81 194.25 335.80 193.93 336.75
  Q 189.13 351.14 184.41 365.55
  Q 179.97 379.15 171.96 391.01
  Q 168.34 396.38 158.65 407.92
  C 143.43 426.05 136.67 450.31 133.51 474.75
  Q 133.00 478.72 133.20 480.77
  Q 133.25 481.26 133.09 481.73
  Q 132.68 482.96 132.52 484.25
  Q 131.79 490.36 132.51 496.33
  L 132.57 510.96
  Q 131.63 519.20 132.52 527.42
  Q 132.87 530.63 133.03 535.14
  Q 133.17 539.02 133.90 542.86
  C 134.12 543.99 133.96 545.17 134.12 546.49
  C 137.07 572.51 141.94 597.05 150.67 621.24
  C 151.13 622.52 152.17 623.62 153.25 624.25
  Q 167.57 632.60 183.21 637.78
  Q 186.49 638.27 189.02 639.71
  Q 198.85 643.22 211.00 645.51
  Q 231.13 649.31 247.98 651.10
  Q 249.27 651.23 249.32 650.40
  L 251.99 650.81
  Q 259.52 652.64 266.99 651.66
  L 291.10 651.53
  Q 296.90 652.48 303.25 651.17
  Q 303.89 651.04 304.32 650.86
  Q 304.75 650.68 305.21 650.73
  Q 309.80 651.30 314.19 649.80
  A 1.31 1.27 -49.9 0 1 314.78 649.74
  Q 318.03 650.20 321.03 648.69
  Q 321.17 648.57 321.72 648.54
  Q 321.73 649.04 322.75 648.88
  Q 326.40 648.32 330.04 647.64
  C 330.91 647.48 331.86 646.98 332.86 646.88
  Q 334.77 646.69 334.99 646.64
  Q 358.87 641.35 380.32 631.06
  Q 411.69 616.01 434.99 589.73
  Q 436.05 587.94 437.56 586.78
  Q 441.93 582.72 445.12 577.46
  L 446.40 575.38
  Q 449.72 572.66 451.31 568.92
  Q 452.05 567.19 450.75 568.56
  L 443.45 576.33
  L 439.71 579.62
  Q 418.29 597.46 397.11 608.11
  C 374.04 619.70 348.12 627.43 322.16 628.77
  L 306.74 628.84
  C 283.91 627.15 262.11 621.62 241.17 612.12
  C 220.10 602.55 201.89 588.77 188.51 569.46
  Q 170.97 544.17 163.32 514.02
  C 161.78 507.94 162.05 501.59 160.82 495.52
  L 160.70 487.70
  C 161.64 483.27 161.82 477.88 162.36 474.38
  C 166.30 448.84 178.55 424.80 194.84 404.98
  C 206.78 390.45 222.58 379.90 241.08 376.05
  Q 241.49 375.96 242.46 375.96
  C 244.36 375.97 246.08 373.41 246.80 371.60
  L 250.24 368.36
  Q 256.90 363.95 264.37 361.87
  C 268.75 360.65 275.27 360.54 279.26 361.07
  C 286.92 362.07 293.09 367.98 298.90 373.09
  Q 302.52 376.28 306.51 375.72
  Q 307.05 375.50 307.75 375.69
  C 315.01 377.43 319.95 368.29 319.86 362.28
  L 319.57 359.64
  C 320.09 351.13 311.97 347.34 304.82 347.76
  A 1.11 1.10 -6.3 0 1 303.66 346.84
  Q 302.89 342.24 304.74 337.97
  Q 305.27 336.79 306.41 335.98
  Q 307.97 335.27 309.39 334.45
  C 318.10 329.47 327.86 331.99 334.92 338.58
  C 339.45 342.79 345.24 349.80 351.25 351.49
  C 355.83 352.78 361.65 352.69 365.64 354.09
  Q 373.71 356.92 377.71 365.05
  Q 378.45 366.98 378.17 369.33
  Q 376.96 371.25 375.90 373.40
  C 374.56 376.11 368.91 377.97 366.04 379.56
  Q 360.55 382.59 360.13 387.91
  L 360.19 391.94
  Q 360.95 396.94 366.25 398.29
  Q 373.30 400.10 380.96 396.40
  Q 381.46 396.16 381.16 395.92
  Q 381.55 396.10 381.73 396.00
  Q 387.91 392.22 390.45 385.93
  A 2.07 2.06 14.8 0 1 392.65 384.66
  Q 399.07 385.54 404.24 389.31
  C 409.30 393.01 409.88 396.17 409.08 402.22
  Q 408.53 406.39 409.06 407.75
  Q 412.37 416.37 421.04 416.74
  L 424.61 416.74
  Q 434.03 415.83 434.97 406.25
  Q 435.04 405.58 434.75 405.01
  L 434.55 404.37
  C 435.97 400.83 431.31 397.12 428.44 395.70
  Q 426.67 393.86 427.85 391.82
  C 428.98 390.69 429.42 390.09 431.12 389.70
  Q 432.19 389.46 433.16 388.99
  Q 435.64 388.43 437.78 389.02
  Q 449.47 390.71 456.58 399.39
  Q 460.32 403.95 458.70 409.49
  C 458.19 411.21 456.94 413.27 456.66 415.27
  C 455.54 423.28 462.94 428.46 470.26 428.78
  Q 481.82 429.29 483.75 418.88
  L 483.61 414.04
  Q 483.99 412.07 482.50 409.92
  Q 482.07 409.56 482.27 408.80
  Q 482.81 408.25 483.37 408.35
  C 496.03 410.44 500.69 420.11 502.84 431.51
  Q 504.99 442.91 505.69 454.51
  Q 505.72 454.98 506.15 455.98
  Q 506.65 457.32 506.37 458.48
  L 506.40 474.00
  L 506.20 477.75
  Q 505.26 481.77 505.06 485.89
  C 504.88 489.66 504.20 492.73 503.64 496.23
  Q 499.43 522.97 487.96 547.45
  Q 470.76 584.13 443.78 614.60
  L 439.26 619.54
  Q 436.24 621.49 434.23 624.57
  L 428.91 629.27
  Q 405.90 649.51 375.75 665.31
  Q 322.08 693.44 264.39 701.79
  C 262.50 702.06 260.03 702.11 257.87 702.51
  Q 255.28 702.99 253.06 703.01
  Q 248.09 703.07 243.16 704.19
  Q 242.20 704.51 241.23 704.35
  L 215.61 704.31
  Q 214.61 704.61 213.13 704.17
  Q 211.12 703.34 206.99 703.06
  Q 201.62 702.70 189.48 698.97
  Q 188.90 698.79 188.38 698.94
  L 187.90 699.11
  Q 188.26 699.04 188.03 698.72
  Q 187.94 698.59 187.77 698.52
  Q 187.49 698.41 187.38 698.47
  A 0.94 0.93 -30.2 0 0 187.04 699.74
  Q 202.83 727.10 223.27 750.96
  Q 224.46 752.35 225.75 752.00
  C 251.90 744.70 279.81 734.11 306.26 722.01
  C 319.05 716.15 331.48 709.52 343.70 702.61
  Q 372.86 686.14 398.76 664.80
  Q 413.57 652.59 427.06 638.95
  L 434.27 632.78
  L 440.79 628.96
  Q 442.48 628.23 443.46 629.92
  Q 443.71 630.34 443.63 630.81
  L 443.31 632.80
  Q 439.87 640.56 436.52 648.25
  Q 433.08 656.18 424.74 668.78
  C 415.91 682.12 406.18 695.07 395.35 706.86
  Q 392.77 709.66 390.69 712.82
  L 377.72 725.67
  C 345.52 755.31 308.49 778.74 268.62 796.12
  A 1.05 1.04 -37.7 0 0 268.39 797.90
  L 284.08 810.13
  A 1.38 1.38 0.0 0 0 285.14 810.41
  Q 288.03 809.95 290.27 808.01
  Q 290.92 807.97 291.50 807.67
  C 333.04 786.95 371.78 761.71 405.13 729.39
  Q 437.94 697.59 461.83 658.65
  Q 475.94 635.66 484.38 616.91
  Q 490.63 603.00 497.65 589.47
  Q 500.08 584.79 504.13 581.64
  C 513.51 574.36 519.04 590.85 520.27 597.01
  Q 521.18 601.56 521.78 606.18
  Q 521.81 606.42 521.95 606.63
  Q 522.10 606.87 522.20 607.06
  Q 522.73 607.43 522.35 608.44
  L 522.42 616.73
  L 522.13 621.75
  Q 521.56 624.62 520.79 632.75
  Q 519.49 646.36 512.65 665.92
  Q 500.50 700.68 476.01 727.64
  C 460.56 744.65 441.81 757.85 422.07 770.33
  C 404.08 781.70 379.09 794.56 361.36 802.84
  Q 334.72 815.28 307.09 825.34
  Q 306.72 825.48 306.53 825.98
  L 306.31 826.23
  Q 305.74 825.44 305.31 826.60
  A 0.72 0.71 19.7 0 0 305.75 827.52
  C 308.97 828.63 312.16 830.59 314.72 831.69
  Q 321.81 834.74 328.98 837.66
  C 332.50 839.10 335.10 838.90 338.48 837.71
  C 340.23 837.10 342.42 836.82 343.82 836.47
  Q 407.97 820.60 468.58 794.27
  C 503.75 778.99 534.51 762.15 561.99 738.12
  Q 566.95 733.78 571.77 729.31
  Q 589.37 712.94 603.43 693.46
  Q 623.41 665.78 634.23 633.37
  Q 639.56 617.39 642.62 600.82
  Q 642.88 599.39 643.51 596.75
  Q 644.52 592.53 644.89 587.12
  C 645.03 585.04 645.85 582.92 645.85 580.75
  Q 645.85 576.24 646.68 572.51
  Q 647.49 568.83 646.42 562.68
  L 646.86 558.99
  L 646.89 547.52
  L 646.58 542.74
  Q 647.25 537.56 646.20 532.53
  C 645.81 530.64 645.84 528.80 645.51 526.76
  Q 643.70 515.51 640.60 504.99
  C 637.11 493.10 630.80 479.04 625.71 466.26
  Q 621.38 455.38 620.13 447.52
  Q 619.44 443.16 623.04 440.57
  C 624.10 439.80 625.72 439.46 627.03 438.77
  Q 627.22 438.47 627.67 438.64
  Q 628.95 439.33 630.47 438.61
  Q 631.32 438.49 631.19 438.88
  C 639.57 441.05 645.70 443.23 653.74 448.99
  C 674.35 463.78 692.53 484.48 700.43 508.49
  Q 704.79 521.77 706.65 538.81
  C 706.74 539.62 707.15 540.60 707.11 541.57
  Q 707.05 543.34 707.06 543.44
  C 708.05 558.13 707.59 569.04 707.00 581.97
  C 706.95 583.22 707.30 584.66 707.03 586.14
  Q 706.48 589.11 706.47 589.15
  C 702.58 633.75 689.50 677.98 667.08 716.85
  Q 644.70 755.67 609.88 783.82
  Q 585.24 803.74 563.47 816.94
  Q 549.91 825.16 544.94 828.38
  C 541.66 830.35 539.14 831.87 535.09 833.73
  Q 531.40 835.43 528.30 838.12
  Q 525.78 837.66 522.81 840.23
  Q 522.78 840.26 522.78 840.30
  Q 522.77 840.45 522.85 840.57
  A 0.28 0.28 0.0 0 0 523.19 840.69
  Q 527.22 839.16 531.25 837.63
  Q 546.75 831.74 562.02 825.24
  C 564.18 824.32 566.56 822.98 568.88 821.97
  Q 573.42 820.01 574.06 819.70
  Q 635.08 790.65 687.34 748.16
  L 710.55 726.44
  Q 710.69 726.49 710.82 726.54
  Q 711.01 726.61 711.15 726.47
  C 731.85 705.45 746.65 680.55 753.56 651.75
  Q 757.96 633.46 760.83 614.86
  Q 762.42 604.54 764.39 594.29
  Q 765.60 587.97 766.82 585.01
  C 774.37 566.65 785.34 583.17 789.68 591.38
  C 799.79 610.50 805.38 631.56 807.62 653.00
  Q 807.69 653.70 808.23 654.25
  Q 808.70 654.80 808.43 655.94
  Q 807.91 656.43 807.95 657.01
  Q 809.66 679.69 806.76 697.75
  C 802.50 724.23 790.77 747.65 774.75 770.06
  Q 773.86 771.30 775.19 770.53
  Q 777.97 768.92 778.55 767.15
  L 785.01 762.04
  Q 795.56 753.77 804.36 743.60
  C 813.59 732.93 821.89 722.57 829.21 711.01
  C 831.92 706.73 832.39 703.28 831.76 698.50
  L 831.90 695.80
  Q 834.00 681.28 832.17 666.73
  Q 831.83 664.01 831.85 660.74
  C 831.87 657.11 830.99 654.37 830.80 651.21
  Q 830.65 648.84 830.65 648.80
  Q 826.76 617.66 817.23 587.77
  Q 809.99 565.07 800.08 543.41
  Q 799.78 542.74 799.39 542.79
  Q 799.56 542.29 799.20 541.50
  Q 788.88 518.61 775.61 498.48
  C 769.98 489.95 763.02 481.22 756.36 472.91
  Q 754.36 470.41 753.43 467.76
  A 2.41 2.40 -32.1 0 1 754.01 465.26
  C 756.39 462.92 760.35 463.79 763.40 463.98
  C 771.47 464.49 780.79 468.11 788.01 471.68
  C 823.73 489.30 851.37 520.06 870.72 554.29
  Q 875.22 562.24 879.61 570.24
  L 881.91 574.70
  Q 881.34 575.34 882.45 576.00
  A 0.26 0.25 -65.5 0 0 882.82 575.86
  C 885.95 566.09 888.63 555.91 889.91 545.81
  C 890.18 543.68 890.98 541.73 890.91 539.49
  C 890.79 535.63 892.49 534.18 890.09 530.17
  Q 863.70 486.03 822.38 456.60
  Q 810.33 448.01 798.26 439.46
  C 792.99 435.74 786.48 427.82 793.76 423.04
  Q 798.55 419.90 805.35 419.13
  L 814.46 418.97
  Q 822.54 420.67 826.49 422.44
  Q 842.44 429.58 851.39 444.56
  C 856.06 452.38 858.77 461.32 869.27 462.49
  C 871.58 462.75 873.48 462.97 875.05 461.47
  Q 881.94 454.88 890.67 460.30
  Q 890.69 460.13 890.71 459.96
  Q 890.47 460.32 891.00 460.71
  A 0.60 0.60 0.0 0 0 891.95 460.29
  Q 892.09 458.80 890.96 457.06
  Q 890.70 456.93 890.79 456.51
  Q 890.89 455.70 890.74 455.03
  C 888.05 443.55 884.44 432.60 880.98 421.35
  C 879.79 417.49 879.03 413.48 878.14 409.53
  C 877.77 407.91 877.84 406.11 877.45 404.36
  C 876.72 401.15 876.83 398.28 876.29 395.16
  C 875.67 391.60 875.94 387.84 874.96 384.17
  C 874.71 383.26 874.89 382.34 874.65 381.38
  Q 871.16 367.73 859.40 360.08
  C 854.89 357.15 847.50 354.11 842.26 355.18
  C 839.84 355.67 837.86 357.86 836.00 359.49
  Q 830.42 364.41 823.01 365.12
  C 815.30 365.86 803.57 362.58 798.66 355.27
  C 796.78 352.47 799.56 348.78 799.51 345.58
  C 799.35 336.24 791.00 329.76 782.49 327.59
  Q 777.75 326.38 774.99 327.28
  C 766.90 329.93 756.84 333.63 749.27 334.32
  Q 745.82 334.63 744.90 335.10
  L 742.39 335.44
  Q 738.26 334.89 734.12 334.92
  Q 728.99 334.95 725.90 334.50
  C 718.19 333.36 712.61 332.41 704.93 328.03
  C 701.66 326.17 695.99 321.71 695.78 318.26
  C 695.55 314.50 696.17 309.35 693.22 306.52
  Q 688.51 302.01 681.46 302.15
  L 677.51 302.02
  Q 675.98 301.76 675.00 302.70
  Q 668.35 309.09 660.28 310.97
  L 654.30 311.16
  C 648.28 309.22 643.65 308.41 640.03 302.69
  A 2.08 2.07 59.7 0 1 640.79 299.76
  C 642.42 298.87 647.84 295.29 646.86 292.85
  L 646.87 291.52
  Q 647.21 288.24 643.52 287.22
  C 641.33 283.80 632.08 288.39 630.05 280.74
  C 628.90 276.41 631.52 275.43 633.10 272.22
  Q 632.99 272.11 633.48 272.01
  Q 635.58 271.28 637.60 269.68
  Q 638.41 269.02 640.30 268.66
  Q 643.10 268.96 645.95 268.02
  Q 648.96 267.55 651.35 268.12
  C 662.03 269.43 671.07 274.06 672.91 285.25
  Q 673.23 287.21 675.17 289.00
  Q 678.89 293.07 683.84 292.66
  L 687.78 292.71
  Q 692.29 293.03 695.08 289.31
  C 699.67 283.17 694.42 277.60 689.69 273.06
  Q 687.29 270.76 687.79 266.41
  Q 690.85 263.29 694.81 263.65
  Q 696.73 264.15 698.32 263.62
  Q 700.19 263.55 701.76 264.06
  C 754.95 274.81 800.03 305.56 841.23 341.97
  L 844.83 344.95
  Q 844.68 346.09 846.36 346.69
  A 0.61 0.61 0.0 0 0 847.14 345.90
  C 841.65 330.82 833.49 317.19 825.78 303.29
  Q 822.42 297.24 816.71 284.99
  C 809.50 269.53 795.97 263.74 780.24 259.29
  C 776.27 258.17 773.34 256.49 769.97 254.43
  L 765.32 249.75
  C 763.15 246.13 761.19 243.43 761.37 238.64
  Q 761.51 234.90 761.14 233.37
  C 760.59 231.13 758.83 226.84 756.40 226.00
  Q 756.31 226.03 756.09 225.77
  Q 756.25 225.71 756.20 225.49
  Q 756.17 225.36 756.04 225.25
  Q 748.92 219.18 740.03 219.33
  L 736.09 219.21
  Q 727.71 219.30 723.66 226.52
  Q 723.41 226.97 722.90 226.99
  C 712.95 227.48 696.94 222.38 691.49 213.45
  Q 690.58 211.95 689.41 210.71
  Q 687.88 208.45 687.43 205.75
  Q 687.48 204.37 688.02 203.41
  Q 688.26 202.99 688.71 202.81
  Q 698.04 199.22 697.98 190.02
  Q 697.94 182.30 692.78 175.72
  Q 685.80 166.82 676.09 166.28
  Q 672.70 165.86 669.88 166.51
  C 664.90 165.33 659.37 170.06 657.09 174.00
  C 654.98 177.65 648.85 176.42 645.91 178.11
  L 643.35 178.41
  Q 640.85 177.48 638.50 178.39
  Q 637.33 178.52 636.28 178.05
  L 625.68 175.30
  Q 621.39 173.69 618.19 169.70
  L 616.65 166.71
  A 1.35 1.34 38.6 0 1 616.54 165.75
  C 618.13 159.90 619.68 156.07 616.10 150.29
  C 610.41 141.10 599.75 136.91 589.25 139.95
  C 583.84 141.51 577.84 144.79 572.05 146.03
  Q 565.78 147.38 559.21 148.02
  Q 550.93 148.71 542.47 147.96
  Q 536.19 146.83 529.97 147.34
  Q 528.64 147.40 528.15 146.92
  L 524.00 146.03
  Q 523.09 139.66 517.99 136.24
  C 501.36 125.06 479.17 125.90 462.08 136.83
  Q 457.89 139.52 454.73 143.88
  Q 453.26 145.91 452.26 149.51
  Q 451.10 153.70 449.34 157.76
  Z
  M 191.76 441.82
  Q 191.51 441.72 191.42 441.92
  Q 185.97 454.73 184.07 468.52
  C 183.86 470.06 183.46 472.26 183.38 473.59
  C 180.72 517.52 196.63 559.58 232.51 586.14
  C 237.01 589.47 240.28 591.06 245.60 590.24
  Q 246.30 590.13 248.48 589.94
  Q 249.56 589.84 249.46 589.01
  Q 250.48 588.38 249.54 586.66
  C 245.30 581.80 240.15 576.98 236.50 572.45
  C 215.95 546.96 203.92 515.68 198.33 483.63
  Q 198.23 483.08 198.00 482.56
  Q 197.79 482.11 197.80 481.61
  C 197.86 479.08 196.97 476.82 196.78 474.40
  Q 196.65 472.65 196.23 470.95
  C 195.45 467.80 196.09 465.12 194.59 462.03
  Q 194.54 460.93 194.44 461.49
  Q 194.96 458.04 194.35 454.76
  Q 193.80 451.85 193.79 449.64
  Q 193.78 446.02 192.95 442.48
  L 192.64 441.31
  Q 192.49 440.73 192.15 441.23
  L 191.76 441.82
  Z
  M 309.20 584.77
  L 317.77 584.67
  Q 324.61 584.68 330.07 580.83
  Q 344.55 570.61 346.86 552.38
  C 348.74 537.56 340.15 522.45 324.25 520.96
  Q 323.69 520.91 323.49 521.16
  L 322.88 521.38
  Q 321.04 520.35 320.33 522.29
  A 0.83 0.83 0.0 0 0 320.73 523.30
  C 325.81 525.95 330.56 530.03 332.43 535.50
  C 336.54 547.54 329.31 564.01 319.76 571.22
  C 302.70 584.10 284.44 573.13 279.34 554.95
  C 278.60 552.30 277.88 550.10 277.87 547.29
  C 277.86 542.75 277.63 538.22 278.55 533.94
  Q 281.12 521.83 289.05 512.79
  Q 299.11 501.32 314.56 497.19
  Q 318.84 496.05 323.72 495.04
  L 332.19 494.95
  Q 357.77 499.20 366.19 522.84
  A 1.91 1.91 0.0 0 0 368.40 524.06
  Q 378.21 521.91 386.00 527.46
  Q 393.80 533.00 396.51 543.31
  Q 396.97 545.05 397.54 546.78
  C 398.47 549.65 398.01 552.67 398.05 555.62
  C 398.08 557.50 397.44 559.15 397.07 560.98
  C 395.22 570.02 388.18 579.84 381.58 585.59
  C 369.98 595.71 352.52 602.87 337.25 604.95
  C 334.04 605.38 331.05 606.07 328.21 606.11
  C 323.07 606.20 318.49 606.50 312.94 606.29
  Q 308.77 606.13 304.58 606.44
  L 302.21 605.90
  L 295.44 604.94
  Q 295.29 605.20 294.60 604.94
  Q 292.29 603.96 290.09 604.06
  Q 288.97 604.11 290.02 604.50
  L 296.07 606.73
  L 297.38 607.09
  Q 307.82 610.86 319.01 611.91
  Q 319.56 611.96 319.45 611.57
  Q 320.29 611.51 320.97 611.69
  Q 320.82 611.63 320.77 611.79
  A 0.18 0.18 0.0 0 0 320.91 612.03
  Q 333.25 613.91 345.58 612.32
  C 349.20 611.86 353.35 611.58 357.24 610.81
  Q 374.51 607.40 389.28 599.02
  Q 390.05 598.59 390.21 597.93
  Q 390.90 597.92 392.13 597.14
  Q 409.46 586.07 420.49 569.75
  Q 421.03 568.95 420.95 568.23
  Q 421.53 568.06 421.92 567.40
  Q 428.23 556.69 430.63 544.50
  Q 431.04 542.44 430.87 540.34
  Q 430.85 540.00 431.03 539.72
  C 432.43 537.63 431.91 527.06 430.91 524.01
  Q 430.76 523.54 430.82 523.05
  Q 430.94 522.01 430.80 521.23
  C 426.67 499.12 410.79 482.51 390.56 473.62
  Q 375.79 467.13 359.72 465.44
  Q 355.17 464.96 350.63 464.33
  Q 347.82 463.95 343.83 464.41
  Q 338.83 464.99 337.12 465.16
  C 304.17 468.30 274.72 490.25 268.32 523.81
  C 267.75 526.76 267.23 531.14 267.29 533.94
  C 267.64 551.17 273.54 565.92 287.72 576.50
  Q 297.50 583.80 309.20 584.77
  Z"
/>
<path fill="#857f87" d="
  M 538.02 112.67
  C 556.19 113.68 574.18 116.11 592.01 119.72
  C 662.75 134.02 728.21 167.41 781.86 215.63
  Q 787.91 221.07 800.36 233.75
  C 828.37 262.28 852.42 295.66 870.23 331.49
  C 888.47 368.16 900.25 405.83 906.58 445.00
  Q 909.16 460.94 910.05 478.75
  C 908.95 469.64 908.08 459.50 906.94 451.44
  C 888.61 321.93 806.61 211.66 689.79 153.78
  Q 618.35 118.38 538.62 113.14
  Q 538.38 113.13 538.02 112.67
  Z"
/>
<path fill="#857f87" d="
  M 524.00 146.03
  C 522.55 141.49 520.44 138.29 516.16 135.77
  C 498.55 125.37 475.37 126.80 459.19 139.68
  Q 453.93 143.87 452.57 150.75
  Q 451.84 154.41 449.34 157.76
  Q 451.10 153.70 452.26 149.51
  Q 453.26 145.91 454.73 143.88
  Q 457.89 139.52 462.08 136.83
  C 479.17 125.90 501.36 125.06 517.99 136.24
  Q 523.09 139.66 524.00 146.03
  Z"
/>
<path fill="#857f87" d="
  M 618.19 169.70
  C 613.77 166.48 617.64 162.83 617.85 158.82
  Q 618.10 153.67 615.12 149.65
  Q 607.37 139.21 595.01 139.75
  C 587.02 140.11 580.18 145.13 572.17 146.80
  Q 565.79 148.13 559.21 148.02
  Q 565.78 147.38 572.05 146.03
  C 577.84 144.79 583.84 141.51 589.25 139.95
  C 599.75 136.91 610.41 141.10 616.10 150.29
  C 619.68 156.07 618.13 159.90 616.54 165.75
  A 1.35 1.34 38.6 0 0 616.65 166.71
  L 618.19 169.70
  Z"
/>
<path fill="#857f87" d="
  M 524.00 146.03
  L 528.15 146.92
  Q 526.57 147.02 525.00 146.91
  Q 523.96 146.84 524.00 146.03
  Z"
/>
<path fill="#857f87" d="
  M 529.97 147.34
  Q 536.19 146.83 542.47 147.96
  L 529.97 147.34
  Z"
/>
<path fill="#857f87" d="
  M 446.69 160.84
  C 435.85 171.28 413.37 168.46 400.32 165.04
  C 399.64 164.86 398.77 164.99 398.05 164.93
  C 404.02 164.63 410.32 166.74 416.51 167.09
  C 427.61 167.73 437.42 167.23 446.69 160.84
  Z"
/>
<path fill="#857f87" d="
  M 396.72 165.13
  C 387.53 166.98 379.23 173.14 375.23 180.73
  Q 374.40 182.32 373.43 187.72
  Q 372.86 186.99 372.99 186.25
  C 374.86 176.02 383.31 168.42 393.00 165.47
  Q 394.78 164.93 396.72 165.13
  Z"
/>
<path fill="#857f87" d="
  M 669.88 166.51
  Q 664.22 166.80 660.53 170.99
  C 658.39 173.42 657.58 175.57 654.71 176.68
  Q 651.83 177.80 645.91 178.11
  C 648.85 176.42 654.98 177.65 657.09 174.00
  C 659.37 170.06 664.90 165.33 669.88 166.51
  Z"
/>
<path fill="#857f87" d="
  M 687.43 205.75
  C 686.48 204.32 686.89 203.39 688.39 202.68
  Q 692.35 200.81 695.09 197.35
  C 699.47 191.82 696.49 180.80 692.42 175.85
  Q 686.05 168.12 676.09 166.28
  Q 685.80 166.82 692.78 175.72
  Q 697.94 182.30 697.98 190.02
  Q 698.04 199.22 688.71 202.81
  Q 688.26 202.99 688.02 203.41
  Q 687.48 204.37 687.43 205.75
  Z"
/>
<path fill="#857f87" d="
  M 636.28 178.05
  Q 630.66 178.21 625.68 175.30
  L 636.28 178.05
  Z"
/>
<path fill="#857f87" d="
  M 643.35 178.41
  Q 641.02 179.20 638.50 178.39
  Q 640.85 177.48 643.35 178.41
  Z"
/>
<path fill="#857f87" d="
  M 373.13 189.51
  C 373.12 192.08 372.96 194.67 371.51 196.91
  C 365.61 206.02 353.71 213.55 342.25 212.94
  C 354.08 210.82 363.47 207.35 370.59 197.26
  C 372.21 194.97 372.54 192.22 373.13 189.51
  Z"
/>
<path fill="#857f87" d="
  M 334.97 212.94
  C 333.38 213.07 332.30 212.87 331.09 211.66
  C 327.81 208.36 323.74 205.67 319.00 205.14
  C 306.60 203.76 295.32 208.97 290.62 220.60
  C 288.94 224.74 287.44 226.76 285.05 229.49
  Q 288.19 224.69 290.53 219.44
  Q 292.50 214.99 294.29 213.00
  C 303.94 202.33 320.42 201.06 331.05 210.91
  C 332.25 212.03 333.50 212.42 334.97 212.94
  Z"
/>
<path fill="#857f87" d="
  M 527.86 247.45
  C 527.30 245.59 529.18 243.84 530.57 242.90
  C 532.09 241.86 534.65 241.79 536.53 241.48
  C 539.81 240.94 541.02 239.17 542.80 236.54
  C 546.84 230.56 545.49 223.92 540.04 219.68
  C 531.07 212.71 514.95 207.82 504.16 214.17
  Q 501.68 215.62 502.11 217.79
  Q 501.15 217.87 500.89 217.52
  Q 500.67 217.24 501.08 216.64
  Q 503.64 212.96 508.02 211.87
  C 519.04 209.12 529.04 212.06 538.47 217.78
  C 547.68 223.36 548.43 234.35 539.68 240.83
  C 535.62 243.82 529.50 240.30 527.86 247.45
  Z"
/>
<path fill="#857f87" d="
  M 689.41 210.71
  Q 690.58 211.95 691.49 213.45
  C 696.94 222.38 712.95 227.48 722.90 226.99
  Q 723.41 226.97 723.66 226.52
  Q 727.71 219.30 736.09 219.21
  Q 734.08 219.97 732.08 220.52
  C 728.39 221.55 726.11 223.95 724.06 226.94
  C 723.17 228.24 722.69 228.07 721.26 227.97
  C 709.90 227.18 694.78 221.92 689.41 210.71
  Z"
/>
<path fill="#2e2c31" d="
  M 527.86 247.45
  Q 527.88 248.76 528.69 250.79
  Q 532.98 254.75 540.01 254.01
  Q 544.18 253.57 548.24 252.49
  Q 549.21 252.24 549.74 251.61
  Q 550.07 251.38 550.44 251.36
  Q 551.83 251.84 552.17 252.75
  Q 553.46 256.14 555.31 257.78
  L 556.21 258.46
  Q 555.83 258.59 556.61 259.13
  C 559.49 261.10 561.87 261.27 565.52 260.57
  Q 569.85 259.75 574.22 259.33
  C 582.70 262.16 590.33 269.33 589.11 278.97
  Q 588.47 280.68 587.82 282.38
  C 583.97 292.44 569.66 291.52 561.69 288.93
  A 2.33 2.32 6.7 0 1 560.09 286.92
  C 559.11 275.77 548.59 267.38 537.86 266.76
  Q 531.52 266.39 526.51 269.05
  Q 521.64 271.64 519.77 276.40
  A 1.66 1.65 -74.6 0 1 517.97 277.43
  C 510.96 276.30 502.57 273.72 499.18 267.14
  C 496.52 262.01 501.99 258.17 498.37 253.12
  C 493.52 246.37 483.96 243.43 475.95 244.95
  Q 475.97 245.25 475.48 245.12
  Q 470.31 245.25 465.78 247.87
  C 463.84 248.99 462.73 250.69 459.97 250.36
  C 455.22 249.81 450.94 250.36 446.60 249.13
  Q 446.12 249.00 445.78 248.63
  Q 440.14 242.47 431.92 239.72
  Q 429.89 238.86 428.41 236.99
  C 427.52 234.18 427.36 231.34 429.85 229.26
  Q 432.81 226.79 436.87 226.20
  Q 438.11 226.45 438.74 227.49
  C 442.55 233.02 450.31 235.27 455.99 231.27
  C 458.65 229.39 461.14 224.84 463.66 221.87
  Q 467.33 219.36 472.31 218.66
  Q 475.01 219.14 477.80 218.67
  Q 477.57 218.38 478.15 218.79
  L 482.52 221.14
  Q 484.09 222.63 484.77 224.72
  Q 488.27 234.41 497.89 234.87
  L 503.05 234.74
  Q 510.26 234.17 511.37 228.42
  C 512.39 223.11 509.14 218.82 503.72 218.26
  Q 503.08 218.37 502.11 217.79
  Q 501.68 215.62 504.16 214.17
  C 514.95 207.82 531.07 212.71 540.04 219.68
  C 545.49 223.92 546.84 230.56 542.80 236.54
  C 541.02 239.17 539.81 240.94 536.53 241.48
  C 534.65 241.79 532.09 241.86 530.57 242.90
  C 529.18 243.84 527.30 245.59 527.86 247.45
  Z"
/>
<path fill="#857f87" d="
  M 477.80 218.67
  Q 475.01 219.14 472.31 218.66
  Q 475.06 217.68 477.80 218.67
  Z"
/>
<path fill="#857f87" d="
  M 503.05 234.74
  Q 508.92 233.15 510.49 229.28
  C 512.73 223.79 508.46 220.49 503.72 218.26
  C 509.14 218.82 512.39 223.11 511.37 228.42
  Q 510.26 234.17 503.05 234.74
  Z"
/>
<path fill="#857f87" d="
  M 478.15 218.79
  Q 480.84 218.67 482.52 221.14
  L 478.15 218.79
  Z"
/>
<path fill="#857f87" d="
  M 756.09 225.77
  Q 749.23 220.40 740.03 219.33
  Q 748.92 219.18 756.04 225.25
  Q 756.17 225.36 756.20 225.49
  Q 756.25 225.71 756.09 225.77
  Z"
/>
<path fill="#857f87" d="
  M 463.66 221.87
  C 461.14 224.84 458.65 229.39 455.99 231.27
  C 450.31 235.27 442.55 233.02 438.74 227.49
  Q 440.46 228.88 442.12 230.15
  C 448.33 234.90 454.13 233.50 458.45 227.60
  Q 460.76 224.45 463.66 221.87
  Z"
/>
<path fill="#857f87" d="
  M 484.77 224.72
  Q 489.00 233.45 497.89 234.87
  Q 488.27 234.41 484.77 224.72
  Z"
/>
<path fill="#857f87" d="
  M 436.87 226.20
  Q 432.81 226.79 429.85 229.26
  C 427.36 231.34 427.52 234.18 428.41 236.99
  Q 426.20 235.27 427.02 232.94
  Q 429.32 226.36 436.87 226.20
  Z"
/>
<path fill="#857f87" d="
  M 756.40 226.00
  C 758.83 226.84 760.59 231.13 761.14 233.37
  Q 761.51 234.90 761.37 238.64
  C 761.19 243.43 763.15 246.13 765.32 249.75
  C 762.03 246.70 761.04 243.78 761.05 239.07
  C 761.06 233.89 760.21 229.90 756.40 226.00
  Z"
/>
<path fill="#857f87" d="
  M 230.83 229.80
  Q 198.04 263.76 172.91 304.40
  C 143.76 351.52 125.31 404.65 118.27 459.51
  C 118.05 461.28 117.77 465.65 117.25 468.68
  C 116.61 472.46 116.72 476.46 116.36 480.30
  C 115.28 491.82 115.33 503.76 115.51 514.50
  C 116.67 582.72 138.01 651.04 173.59 708.92
  Q 193.81 741.82 220.61 771.68
  Q 219.47 770.85 217.66 768.82
  C 194.09 742.49 174.65 714.20 158.60 683.17
  Q 151.48 669.43 149.66 665.11
  Q 145.61 655.56 141.81 645.90
  Q 131.90 620.71 126.24 598.24
  C 117.10 561.99 113.47 523.75 115.36 486.00
  C 115.40 485.29 115.73 484.65 115.73 483.97
  Q 115.81 477.49 116.03 475.00
  C 120.20 428.11 132.51 382.02 153.15 339.76
  C 160.50 324.73 165.67 314.95 174.54 300.52
  Q 198.41 261.66 230.83 229.80
  Z"
/>
<path fill="#857f87" d="
  M 280.71 233.80
  C 275.91 239.00 269.13 242.67 263.04 246.13
  C 260.11 247.80 255.60 245.08 252.43 244.22
  Q 255.28 243.96 259.06 245.92
  Q 260.10 246.46 261.58 245.78
  C 268.69 242.54 274.38 238.26 280.71 233.80
  Z"
/>
<path fill="#857f87" d="
  M 475.48 245.12
  Q 469.13 246.07 464.12 249.62
  C 460.57 252.13 456.33 251.01 452.00 250.24
  C 449.94 249.87 447.01 250.53 445.24 248.76
  Q 443.76 247.29 442.22 245.90
  C 439.38 243.33 435.28 241.65 431.92 239.72
  Q 440.14 242.47 445.78 248.63
  Q 446.12 249.00 446.60 249.13
  C 450.94 250.36 455.22 249.81 459.97 250.36
  C 462.73 250.69 463.84 248.99 465.78 247.87
  Q 470.31 245.25 475.48 245.12
  Z"
/>
<path fill="#857f87" d="
  M 246.83 243.98
  Q 245.35 244.63 241.75 245.29
  C 233.54 246.79 225.76 255.34 224.41 263.98
  Q 224.06 264.04 223.98 263.17
  Q 223.93 262.75 224.07 262.29
  Q 228.97 245.96 246.83 243.98
  Z"
/>
<path fill="#857f87" d="
  M 589.11 278.97
  Q 587.65 289.43 577.52 290.84
  C 572.96 291.48 565.07 291.35 560.73 288.94
  Q 560.29 288.70 560.13 288.23
  Q 559.52 286.41 559.12 284.56
  C 557.28 276.20 549.85 269.75 541.83 267.61
  Q 537.52 266.46 536.00 266.88
  C 528.70 268.88 522.97 269.58 519.86 277.31
  Q 519.67 277.79 519.17 277.94
  Q 517.79 278.36 516.36 277.94
  C 509.25 275.84 502.82 274.09 498.56 267.45
  C 496.78 264.68 499.58 258.91 498.63 255.45
  C 496.27 246.88 484.08 244.60 475.95 244.95
  C 483.96 243.43 493.52 246.37 498.37 253.12
  C 501.99 258.17 496.52 262.01 499.18 267.14
  C 502.57 273.72 510.96 276.30 517.97 277.43
  A 1.66 1.65 -74.6 0 0 519.77 276.40
  Q 521.64 271.64 526.51 269.05
  Q 531.52 266.39 537.86 266.76
  C 548.59 267.38 559.11 275.77 560.09 286.92
  A 2.33 2.32 6.7 0 0 561.69 288.93
  C 569.66 291.52 583.97 292.44 587.82 282.38
  Q 588.47 280.68 589.11 278.97
  Z"
/>
<path fill="#857f87" d="
  M 528.69 250.79
  Q 531.70 252.71 533.13 252.87
  Q 541.57 253.86 549.74 251.61
  Q 549.21 252.24 548.24 252.49
  Q 544.18 253.57 540.01 254.01
  Q 532.98 254.75 528.69 250.79
  Z"
/>
<path fill="#857f87" d="
  M 555.31 257.78
  Q 553.46 256.14 552.17 252.75
  Q 551.83 251.84 550.44 251.36
  Q 551.85 250.45 552.47 252.00
  Q 553.94 255.67 555.31 257.78
  Z"
/>
<path fill="#857f87" d="
  M 769.97 254.43
  C 773.34 256.49 776.27 258.17 780.24 259.29
  C 795.97 263.74 809.50 269.53 816.71 284.99
  Q 822.42 297.24 825.78 303.29
  C 833.49 317.19 841.65 330.82 847.14 345.90
  A 0.61 0.61 0.0 0 1 846.36 346.69
  Q 844.68 346.09 844.83 344.95
  Q 845.62 344.83 845.93 344.48
  Q 846.20 344.17 845.91 343.51
  C 843.87 338.85 841.99 334.06 839.59 329.65
  Q 832.65 316.89 825.56 304.22
  C 821.71 297.33 818.34 289.22 814.37 281.83
  C 806.39 266.98 790.96 263.62 776.51 258.67
  Q 772.64 257.35 769.97 254.43
  Z"
/>
<path fill="#857f87" d="
  M 556.21 258.46
  C 557.51 259.33 558.38 259.97 560.05 259.91
  Q 567.20 259.66 574.22 259.33
  Q 569.85 259.75 565.52 260.57
  C 561.87 261.27 559.49 261.10 556.61 259.13
  Q 555.83 258.59 556.21 258.46
  Z"
/>
<path fill="#857f87" d="
  M 698.32 263.62
  Q 696.73 264.15 694.81 263.65
  Q 696.69 262.78 698.32 263.62
  Z"
/>
<path fill="#857f87" d="
  M 701.76 264.06
  Q 706.08 264.20 712.01 265.76
  C 746.44 274.80 776.73 291.16 805.39 312.10
  Q 824.23 325.86 841.23 341.97
  C 800.03 305.56 754.95 274.81 701.76 264.06
  Z"
/>
<path fill="#857f87" d="
  M 224.18 266.00
  C 223.90 271.36 224.49 277.63 223.28 282.29
  Q 222.08 286.95 219.47 290.99
  C 216.16 296.11 211.65 298.10 205.97 299.94
  C 196.95 302.88 192.45 315.76 191.96 324.24
  Q 191.78 327.29 194.50 333.07
  C 195.05 334.24 195.03 335.38 194.68 336.51
  C 192.62 343.10 190.17 349.90 187.72 358.25
  C 184.09 370.58 178.50 383.53 170.83 393.94
  C 163.47 403.91 154.87 412.67 149.12 423.80
  C 141.26 439.05 136.48 454.83 134.53 471.76
  Q 133.28 482.63 132.51 496.33
  Q 131.79 490.36 132.52 484.25
  Q 132.68 482.96 133.09 481.73
  Q 133.25 481.26 133.20 480.77
  Q 133.00 478.72 133.51 474.75
  C 136.67 450.31 143.43 426.05 158.65 407.92
  Q 168.34 396.38 171.96 391.01
  Q 179.97 379.15 184.41 365.55
  Q 189.13 351.14 193.93 336.75
  C 194.25 335.80 194.40 334.81 193.91 333.80
  Q 191.36 328.48 191.71 322.51
  C 192.19 314.41 197.28 301.46 206.28 299.35
  Q 217.23 296.78 221.38 286.36
  C 222.07 284.63 222.78 283.01 223.02 281.16
  Q 223.76 275.17 223.46 267.26
  Q 223.42 266.06 224.18 266.00
  Z"
/>
<path fill="#857f87" d="
  M 687.79 266.41
  Q 687.29 270.76 689.69 273.06
  C 694.42 277.60 699.67 283.17 695.08 289.31
  Q 692.29 293.03 687.78 292.71
  Q 689.58 292.09 691.31 291.32
  C 695.76 289.33 697.27 284.29 695.06 280.19
  Q 694.57 279.29 690.99 275.68
  Q 686.52 271.18 687.79 266.41
  Z"
/>
<path fill="#857f87" d="
  M 645.95 268.02
  Q 643.10 268.96 640.30 268.66
  L 645.95 268.02
  Z"
/>
<path fill="#857f87" d="
  M 651.35 268.12
  C 659.27 268.05 668.05 271.99 671.81 279.40
  C 673.12 281.98 673.46 285.84 675.17 289.00
  Q 673.23 287.21 672.91 285.25
  C 671.07 274.06 662.03 269.43 651.35 268.12
  Z"
/>
<path fill="#857f87" d="
  M 637.60 269.68
  Q 635.58 271.28 633.48 272.01
  Q 635.02 270.08 637.60 269.68
  Z"
/>
<path fill="#857f87" d="
  M 633.10 272.22
  C 631.52 275.43 628.90 276.41 630.05 280.74
  C 632.08 288.39 641.33 283.80 643.52 287.22
  Q 639.81 286.21 636.00 286.02
  Q 633.76 285.91 632.69 285.14
  C 627.28 281.25 628.45 276.06 633.10 272.22
  Z"
/>
<path fill="#857f87" d="
  M 643.52 287.22
  Q 647.21 288.24 646.87 291.52
  Q 645.73 288.65 643.52 287.22
  Z"
/>
<path fill="#857f87" d="
  M 675.17 289.00
  L 683.84 292.66
  Q 678.89 293.07 675.17 289.00
  Z"
/>
<path fill="#857f87" d="
  M 646.86 292.85
  C 647.84 295.29 642.42 298.87 640.79 299.76
  A 2.08 2.07 59.7 0 0 640.03 302.69
  C 643.65 308.41 648.28 309.22 654.30 311.16
  Q 643.72 310.69 639.18 302.33
  A 1.99 1.98 60.2 0 1 639.90 299.67
  Q 644.36 297.00 646.86 292.85
  Z"
/>
<path fill="#857f87" d="
  M 677.51 302.02
  C 673.00 305.33 666.11 311.12 660.28 310.97
  Q 668.35 309.09 675.00 302.70
  Q 675.98 301.76 677.51 302.02
  Z"
/>
<path fill="#857f87" d="
  M 742.39 335.44
  C 728.41 336.69 709.75 334.60 698.75 324.26
  C 696.36 322.02 695.08 318.76 695.00 315.24
  C 694.95 313.29 695.11 311.05 694.17 309.33
  C 691.06 303.67 686.71 304.08 681.46 302.15
  Q 688.51 302.01 693.22 306.52
  C 696.17 309.35 695.55 314.50 695.78 318.26
  C 695.99 321.71 701.66 326.17 704.93 328.03
  C 712.61 332.41 718.19 333.36 725.90 334.50
  Q 728.99 334.95 734.12 334.92
  Q 738.26 334.89 742.39 335.44
  Z"
/>
<path fill="#857f87" d="
  M 890.79 456.51
  Q 890.10 454.91 889.75 453.21
  C 886.85 439.33 880.55 425.13 877.95 412.26
  Q 876.02 402.65 874.64 384.00
  Q 874.43 381.16 872.73 376.87
  C 867.96 364.87 854.71 354.23 841.07 356.14
  A 2.83 2.82 -74.0 0 0 839.29 357.13
  C 833.36 364.18 824.56 367.08 815.50 365.35
  C 809.08 364.12 802.83 361.38 798.63 356.13
  C 796.57 353.56 797.31 352.03 798.30 349.29
  C 800.00 344.57 798.33 339.32 795.08 335.68
  Q 788.04 327.77 778.11 327.93
  Q 774.95 327.99 768.12 330.19
  C 760.94 332.51 752.49 335.03 744.90 335.10
  Q 745.82 334.63 749.27 334.32
  C 756.84 333.63 766.90 329.93 774.99 327.28
  Q 777.75 326.38 782.49 327.59
  C 791.00 329.76 799.35 336.24 799.51 345.58
  C 799.56 348.78 796.78 352.47 798.66 355.27
  C 803.57 362.58 815.30 365.86 823.01 365.12
  Q 830.42 364.41 836.00 359.49
  C 837.86 357.86 839.84 355.67 842.26 355.18
  C 847.50 354.11 854.89 357.15 859.40 360.08
  Q 871.16 367.73 874.65 381.38
  C 874.89 382.34 874.71 383.26 874.96 384.17
  C 875.94 387.84 875.67 391.60 876.29 395.16
  C 876.83 398.28 876.72 401.15 877.45 404.36
  C 877.84 406.11 877.77 407.91 878.14 409.53
  C 879.03 413.48 879.79 417.49 880.98 421.35
  C 884.44 432.60 888.05 443.55 890.74 455.03
  Q 890.89 455.70 890.79 456.51
  Z"
/>
<path fill="#857f87" d="
  M 377.71 365.05
  Q 373.71 356.92 365.64 354.09
  C 361.65 352.69 355.83 352.78 351.25 351.49
  C 345.24 349.80 339.45 342.79 334.92 338.58
  C 327.86 331.99 318.10 329.47 309.39 334.45
  Q 307.97 335.27 306.41 335.98
  Q 313.84 329.58 322.77 331.47
  C 331.33 333.28 338.13 340.50 344.55 346.96
  Q 347.03 349.45 350.77 350.81
  Q 352.96 351.61 357.86 351.99
  C 366.28 352.64 375.14 356.28 377.71 365.05
  Z"
/>
<path fill="#857f87" d="
  M 304.74 337.97
  Q 302.89 342.24 303.66 346.84
  A 1.11 1.10 -6.3 0 0 304.82 347.76
  C 311.97 347.34 320.09 351.13 319.57 359.64
  C 318.45 350.88 311.91 347.86 304.02 347.98
  A 0.96 0.96 0.0 0 1 303.05 347.09
  C 302.81 343.92 302.52 340.58 304.74 337.97
  Z"
/>
<path fill="#857f87" d="
  M 306.51 375.72
  Q 302.52 376.28 298.90 373.09
  C 293.09 367.98 286.92 362.07 279.26 361.07
  C 275.27 360.54 268.75 360.65 264.37 361.87
  Q 256.90 363.95 250.24 368.36
  C 258.49 361.75 270.26 358.18 280.68 360.77
  C 288.06 362.61 293.49 367.28 299.36 372.61
  C 301.65 374.68 303.64 375.06 306.51 375.72
  Z"
/>
<path fill="#857f87" d="
  M 319.86 362.28
  C 319.95 368.29 315.01 377.43 307.75 375.69
  Q 316.99 374.35 318.75 366.25
  Q 319.36 363.45 319.86 362.28
  Z"
/>
<path fill="#857f87" d="
  M 378.17 369.33
  Q 377.36 375.68 371.00 377.74
  Q 362.60 380.47 360.13 387.91
  Q 360.55 382.59 366.04 379.56
  C 368.91 377.97 374.56 376.11 375.90 373.40
  Q 376.96 371.25 378.17 369.33
  Z"
/>
<path fill="#857f87" d="
  M 246.80 371.60
  C 246.08 373.41 244.36 375.97 242.46 375.96
  Q 241.49 375.96 241.08 376.05
  C 222.58 379.90 206.78 390.45 194.84 404.98
  C 178.55 424.80 166.30 448.84 162.36 474.38
  C 161.82 477.88 161.64 483.27 160.70 487.70
  Q 161.21 466.71 169.95 445.02
  C 182.10 414.89 207.05 381.26 241.22 375.69
  Q 243.62 375.30 246.80 371.60
  Z"
/>
<path fill="#857f87" d="
  M 421.04 416.74
  Q 412.37 416.37 409.06 407.75
  Q 408.53 406.39 409.08 402.22
  C 409.88 396.17 409.30 393.01 404.24 389.31
  Q 399.07 385.54 392.65 384.66
  A 2.07 2.06 14.8 0 0 390.45 385.93
  Q 387.91 392.22 381.73 396.00
  Q 381.55 396.10 381.16 395.92
  Q 387.23 391.56 390.59 385.10
  A 1.98 1.97 17.6 0 1 392.61 384.06
  C 398.58 384.88 409.07 389.65 409.95 396.75
  C 410.52 401.34 407.46 406.14 411.29 410.95
  Q 414.88 415.46 421.04 416.74
  Z"
/>
<path fill="#857f87" d="
  M 433.16 388.99
  Q 432.19 389.46 431.12 389.70
  C 429.42 390.09 428.98 390.69 427.85 391.82
  Q 428.62 388.94 433.16 388.99
  Z"
/>
<path fill="#857f87" d="
  M 437.78 389.02
  C 446.38 389.44 457.05 394.69 459.57 403.45
  C 461.55 410.32 453.74 415.76 458.62 422.09
  C 463.55 428.48 473.39 430.15 479.70 425.71
  Q 482.18 423.97 483.75 418.88
  Q 481.82 429.29 470.26 428.78
  C 462.94 428.46 455.54 423.28 456.66 415.27
  C 456.94 413.27 458.19 411.21 458.70 409.49
  Q 460.32 403.95 456.58 399.39
  Q 449.47 390.71 437.78 389.02
  Z"
/>
<path fill="#857f87" d="
  M 360.19 391.94
  C 364.71 400.12 373.94 398.96 381.16 395.92
  Q 381.46 396.16 380.96 396.40
  Q 373.30 400.10 366.25 398.29
  Q 360.95 396.94 360.19 391.94
  Z"
/>
<path fill="#857f87" d="
  M 428.44 395.70
  C 431.31 397.12 435.97 400.83 434.55 404.37
  C 433.50 398.95 431.29 398.89 428.44 395.70
  Z"
/>
<path fill="#857f87" d="
  M 434.75 405.01
  Q 435.04 405.58 434.97 406.25
  Q 434.03 415.83 424.61 416.74
  C 431.42 414.96 433.63 411.45 434.75 405.01
  Z"
/>
<path fill="#857f87" d="
  M 506.15 455.98
  Q 505.72 454.98 505.69 454.51
  Q 504.99 442.91 502.84 431.51
  C 500.69 420.11 496.03 410.44 483.37 408.35
  Q 482.81 408.25 482.27 408.80
  Q 482.03 407.73 483.52 407.96
  C 495.42 409.86 500.25 417.62 502.90 429.22
  Q 505.89 442.35 506.15 455.98
  Z"
/>
<path fill="#857f87" d="
  M 483.61 414.04
  L 482.50 409.92
  Q 483.99 412.07 483.61 414.04
  Z"
/>
<path fill="#857f87" d="
  M 805.35 419.13
  Q 798.55 419.90 793.76 423.04
  C 786.48 427.82 792.99 435.74 798.26 439.46
  Q 810.33 448.01 822.38 456.60
  Q 863.70 486.03 890.09 530.17
  C 892.49 534.18 890.79 535.63 890.91 539.49
  C 890.98 541.73 890.18 543.68 889.91 545.81
  C 888.63 555.91 885.95 566.09 882.82 575.86
  A 0.26 0.25 -65.5 0 1 882.45 576.00
  Q 881.34 575.34 881.91 574.70
  Q 882.44 575.11 882.60 574.62
  C 886.00 564.04 887.31 556.36 889.26 546.97
  C 889.76 544.58 889.96 541.16 890.76 538.00
  C 891.46 535.25 890.91 532.67 889.37 530.08
  C 872.31 501.32 849.39 476.66 822.95 457.77
  Q 810.35 448.78 797.72 439.83
  C 792.17 435.90 785.33 427.17 794.31 422.05
  Q 799.34 419.18 805.35 419.13
  Z"
/>
<path fill="#857f87" d="
  M 814.46 418.97
  C 829.59 420.40 841.93 429.62 850.36 441.90
  C 853.08 445.86 856.48 453.98 859.81 457.44
  C 862.71 460.45 867.53 462.63 871.90 461.94
  Q 873.27 461.72 875.43 460.07
  C 878.35 457.85 881.74 456.28 885.50 457.26
  Q 887.69 457.83 890.67 460.30
  Q 881.94 454.88 875.05 461.47
  C 873.48 462.97 871.58 462.75 869.27 462.49
  C 858.77 461.32 856.06 452.38 851.39 444.56
  Q 842.44 429.58 826.49 422.44
  Q 822.54 420.67 814.46 418.97
  Z"
/>
<path fill="#857f87" d="
  M 630.47 438.61
  Q 628.95 439.33 627.67 438.64
  Q 629.13 438.00 630.47 438.61
  Z"
/>
<path fill="#857f87" d="
  M 627.03 438.77
  C 625.72 439.46 624.10 439.80 623.04 440.57
  Q 619.44 443.16 620.13 447.52
  Q 621.38 455.38 625.71 466.26
  C 630.80 479.04 637.11 493.10 640.60 504.99
  Q 643.70 515.51 645.51 526.76
  C 645.84 528.80 645.81 530.64 646.20 532.53
  Q 647.25 537.56 646.58 542.74
  Q 645.88 537.11 645.29 531.53
  Q 642.95 509.49 636.16 493.33
  Q 630.22 479.22 624.61 464.96
  C 622.77 460.29 621.16 455.07 620.21 450.75
  C 618.97 445.11 620.04 439.23 627.03 438.77
  Z"
/>
<path fill="#857f87" d="
  M 631.19 438.88
  C 636.05 438.26 644.00 442.19 648.09 444.70
  C 672.10 459.42 693.79 483.42 701.79 511.01
  Q 707.30 530.03 707.94 547.75
  C 708.36 559.73 708.32 574.90 707.29 587.39
  C 704.02 626.71 693.77 665.18 676.55 700.76
  C 662.61 729.56 642.30 756.81 619.05 777.05
  C 597.07 796.18 570.57 814.38 544.94 828.38
  Q 549.91 825.16 563.47 816.94
  Q 585.24 803.74 609.88 783.82
  Q 644.70 755.67 667.08 716.85
  C 689.50 677.98 702.58 633.75 706.47 589.15
  Q 706.48 589.11 707.03 586.14
  C 707.30 584.66 706.95 583.22 707.00 581.97
  C 707.59 569.04 708.05 558.13 707.06 543.44
  Q 707.05 543.34 707.11 541.57
  C 707.15 540.60 706.74 539.62 706.65 538.81
  Q 704.79 521.77 700.43 508.49
  C 692.53 484.48 674.35 463.78 653.74 448.99
  C 645.70 443.23 639.57 441.05 631.19 438.88
  Z"
/>
<path fill="#857f87" d="
  M 191.76 441.82
  Q 191.84 442.39 191.69 442.72
  Q 184.86 458.82 184.08 474.75
  C 182.48 507.32 190.16 539.22 210.94 564.59
  Q 223.10 579.44 235.86 587.88
  Q 241.98 591.92 249.46 589.01
  Q 249.56 589.84 248.48 589.94
  Q 246.30 590.13 245.60 590.24
  C 240.28 591.06 237.01 589.47 232.51 586.14
  C 196.63 559.58 180.72 517.52 183.38 473.59
  C 183.46 472.26 183.86 470.06 184.07 468.52
  Q 185.97 454.73 191.42 441.92
  Q 191.51 441.72 191.76 441.82
  Z"
/>
<path fill="#857f87" d="
  M 192.95 442.48
  Q 193.78 446.02 193.79 449.64
  Q 193.80 451.85 194.35 454.76
  Q 194.96 458.04 194.44 461.49
  Q 194.05 456.61 193.37 452.14
  C 192.87 448.86 193.00 445.75 192.95 442.48
  Z"
/>
<path fill="#857f87" d="
  M 890.96 457.06
  Q 892.09 458.80 891.95 460.29
  A 0.60 0.60 0.0 0 1 891.00 460.71
  Q 890.47 460.32 890.71 459.96
  Q 891.22 458.84 890.96 457.06
  Z"
/>
<path fill="#857f87" d="
  M 506.37 458.48
  Q 507.53 466.24 506.40 474.00
  L 506.37 458.48
  Z"
/>
<path fill="#857f87" d="
  M 194.59 462.03
  C 196.09 465.12 195.45 467.80 196.23 470.95
  Q 196.65 472.65 196.78 474.40
  C 196.97 476.82 197.86 479.08 197.80 481.61
  Q 197.79 482.11 198.00 482.56
  Q 198.23 483.08 198.33 483.63
  C 203.92 515.68 215.95 546.96 236.50 572.45
  C 240.15 576.98 245.30 581.80 249.54 586.66
  C 229.46 569.52 215.14 543.68 206.25 517.24
  Q 197.77 492.01 194.59 462.03
  Z"
/>
<path fill="#857f87" d="
  M 879.61 570.24
  Q 875.22 562.24 870.72 554.29
  C 851.37 520.06 823.73 489.30 788.01 471.68
  C 780.79 468.11 771.47 464.49 763.40 463.98
  C 760.35 463.79 756.39 462.92 754.01 465.26
  A 2.41 2.40 -32.1 0 0 753.43 467.76
  Q 754.36 470.41 756.36 472.91
  C 763.02 481.22 769.98 489.95 775.61 498.48
  Q 788.88 518.61 799.20 541.50
  Q 799.56 542.29 799.39 542.79
  Q 790.47 524.53 787.44 519.00
  Q 774.44 495.33 756.94 474.78
  Q 754.03 471.36 752.95 467.51
  A 2.81 2.81 0.0 0 1 754.19 464.35
  Q 757.17 462.53 761.13 463.02
  Q 778.85 465.20 794.24 474.25
  Q 820.84 489.89 838.71 509.29
  Q 863.90 536.62 879.61 570.24
  Z"
/>
<path fill="#857f87" d="
  M 420.95 568.23
  Q 425.37 559.87 426.56 556.75
  Q 432.37 541.53 430.97 526.75
  C 427.07 485.60 385.37 465.39 348.25 464.94
  Q 334.16 464.77 319.06 469.67
  Q 296.94 476.85 282.74 494.15
  C 261.28 520.29 261.82 560.91 292.98 579.50
  Q 297.99 582.49 309.20 584.77
  Q 297.50 583.80 287.72 576.50
  C 273.54 565.92 267.64 551.17 267.29 533.94
  C 267.23 531.14 267.75 526.76 268.32 523.81
  C 274.72 490.25 304.17 468.30 337.12 465.16
  Q 338.83 464.99 343.83 464.41
  Q 347.82 463.95 350.63 464.33
  Q 355.17 464.96 359.72 465.44
  Q 375.79 467.13 390.56 473.62
  C 410.79 482.51 426.67 499.12 430.80 521.23
  Q 430.94 522.01 430.82 523.05
  Q 430.76 523.54 430.91 524.01
  C 431.91 527.06 432.43 537.63 431.03 539.72
  Q 430.85 540.00 430.87 540.34
  Q 431.04 542.44 430.63 544.50
  Q 428.23 556.69 421.92 567.40
  Q 421.53 568.06 420.95 568.23
  Z"
/>
<path fill="#2e2c31" d="
  M 601.09 473.93
  Q 602.54 475.40 603.99 476.86
  C 607.41 480.30 609.30 485.52 610.73 490.26
  C 614.35 502.30 617.18 515.02 617.89 525.38
  C 620.42 562.50 611.40 598.62 594.67 631.98
  Q 570.95 679.31 539.31 716.27
  Q 536.05 720.08 531.84 724.47
  Q 528.03 728.44 524.14 732.44
  Q 523.23 734.17 521.45 735.06
  L 513.19 741.69
  Q 511.73 743.33 510.76 743.75
  Q 508.10 744.89 509.88 742.62
  L 515.49 735.45
  Q 516.83 734.50 518.45 732.45
  Q 526.64 722.07 532.04 714.55
  C 555.48 681.94 570.19 645.61 573.67 604.67
  C 573.98 600.98 574.62 596.25 574.81 592.01
  C 575.35 579.57 576.13 567.49 575.41 555.00
  Q 574.97 547.44 574.39 539.89
  Q 573.20 524.24 570.51 508.80
  C 568.66 498.21 567.06 491.83 573.07 484.28
  Q 580.22 475.30 592.69 473.04
  Q 596.67 472.20 601.09 473.93
  Z"
/>
<path fill="#857f87" d="
  M 592.69 473.04
  Q 580.22 475.30 573.07 484.28
  C 567.06 491.83 568.66 498.21 570.51 508.80
  Q 573.20 524.24 574.39 539.89
  Q 574.97 547.44 575.41 555.00
  C 576.13 567.49 575.35 579.57 574.81 592.01
  C 574.62 596.25 573.98 600.98 573.67 604.67
  C 570.19 645.61 555.48 681.94 532.04 714.55
  Q 526.64 722.07 518.45 732.45
  Q 516.83 734.50 515.49 735.45
  Q 533.75 712.42 543.59 695.83
  Q 569.62 651.93 573.60 600.00
  C 576.11 567.34 575.61 535.82 569.07 504.20
  Q 567.92 498.64 567.98 496.21
  C 568.29 483.88 580.79 474.05 592.69 473.04
  Z"
/>
<path fill="#857f87" d="
  M 601.09 473.93
  Q 606.39 476.95 609.01 483.73
  C 629.50 536.82 615.90 593.92 590.34 642.31
  Q 570.37 680.13 542.80 712.82
  C 538.26 718.20 531.41 727.18 524.14 732.44
  Q 528.03 728.44 531.84 724.47
  Q 536.05 720.08 539.31 716.27
  Q 570.95 679.31 594.67 631.98
  C 611.40 598.62 620.42 562.50 617.89 525.38
  C 617.18 515.02 614.35 502.30 610.73 490.26
  C 609.30 485.52 607.41 480.30 603.99 476.86
  Q 602.54 475.40 601.09 473.93
  Z"
/>
<path fill="#857f87" d="
  M 506.20 477.75
  Q 505.73 491.55 502.69 504.99
  C 501.12 511.91 499.56 519.02 497.34 525.55
  Q 487.98 553.06 470.80 579.79
  Q 457.64 600.27 443.78 614.60
  Q 470.76 584.13 487.96 547.45
  Q 499.43 522.97 503.64 496.23
  C 504.20 492.73 504.88 489.66 505.06 485.89
  Q 505.26 481.77 506.20 477.75
  Z"
/>
<path fill="#857f87" d="
  M 421.58 508.23
  Q 420.35 506.81 419.35 505.18
  C 415.17 498.37 408.76 492.74 402.06 488.60
  C 393.97 483.61 386.45 480.36 377.25 480.68
  Q 374.56 480.77 372.07 483.19
  A 1.72 1.71 37.3 0 0 372.44 485.93
  Q 375.30 487.49 378.91 489.01
  Q 397.20 496.68 408.65 512.84
  Q 422.30 532.07 418.28 555.96
  Q 419.15 549.14 418.87 543.88
  C 417.56 518.92 400.58 498.36 377.73 489.10
  Q 373.54 487.40 371.88 486.39
  Q 370.07 485.28 371.34 483.34
  C 374.26 478.88 382.22 479.67 386.48 481.02
  C 400.77 485.56 414.67 494.47 421.58 508.23
  Z"
/>
<path fill="#2e2c31" d="
  M 421.58 508.23
  C 422.51 511.16 424.44 514.36 424.87 517.31
  C 425.18 519.47 425.82 521.91 426.03 523.69
  Q 427.44 535.69 424.38 547.36
  C 423.62 550.28 422.14 553.53 421.13 556.72
  L 418.27 562.18
  Q 417.18 563.02 416.32 562.94
  L 418.28 555.96
  Q 422.30 532.07 408.65 512.84
  Q 397.20 496.68 378.91 489.01
  Q 375.30 487.49 372.44 485.93
  A 1.72 1.71 37.3 0 1 372.07 483.19
  Q 374.56 480.77 377.25 480.68
  C 386.45 480.36 393.97 483.61 402.06 488.60
  C 408.76 492.74 415.17 498.37 419.35 505.18
  Q 420.35 506.81 421.58 508.23
  Z"
/>
<path fill="#857f87" d="
  M 910.50 481.95
  Q 910.97 487.18 910.97 489.00
  C 911.01 502.82 911.33 517.44 910.44 530.48
  C 904.74 613.43 869.98 692.40 816.95 756.00
  Q 809.61 764.80 803.13 771.26
  Q 805.39 768.24 807.90 765.46
  C 839.47 730.47 864.70 689.45 882.65 645.89
  Q 903.56 595.14 908.85 540.48
  Q 911.64 511.66 909.98 482.75
  Q 909.94 482.02 910.50 481.95
  Z"
/>
<path fill="#857f87" d="
  M 332.19 494.95
  C 347.65 496.22 361.65 506.63 366.42 521.73
  A 1.80 1.80 0.0 0 0 368.13 523.00
  C 374.97 523.01 379.76 522.19 386.11 526.92
  C 402.82 539.38 401.67 562.70 389.40 577.69
  C 382.41 586.22 374.72 592.57 364.54 597.25
  C 346.04 605.76 324.70 608.48 304.58 606.44
  Q 308.77 606.13 312.94 606.29
  C 318.49 606.50 323.07 606.20 328.21 606.11
  C 331.05 606.07 334.04 605.38 337.25 604.95
  C 352.52 602.87 369.98 595.71 381.58 585.59
  C 388.18 579.84 395.22 570.02 397.07 560.98
  C 397.44 559.15 398.08 557.50 398.05 555.62
  C 398.01 552.67 398.47 549.65 397.54 546.78
  Q 396.97 545.05 396.51 543.31
  Q 393.80 533.00 386.00 527.46
  Q 378.21 521.91 368.40 524.06
  A 1.91 1.91 0.0 0 1 366.19 522.84
  Q 357.77 499.20 332.19 494.95
  Z"
/>
<path fill="#857f87" d="
  M 323.72 495.04
  Q 318.84 496.05 314.56 497.19
  Q 299.11 501.32 289.05 512.79
  Q 281.12 521.83 278.55 533.94
  C 277.63 538.22 277.86 542.75 277.87 547.29
  C 277.88 550.10 278.60 552.30 279.34 554.95
  C 284.44 573.13 302.70 584.10 319.76 571.22
  C 329.31 564.01 336.54 547.54 332.43 535.50
  C 330.56 530.03 325.81 525.95 320.73 523.30
  A 0.83 0.83 0.0 0 1 320.33 522.29
  Q 321.04 520.35 322.88 521.38
  L 321.86 521.93
  Q 320.59 522.60 321.84 523.31
  Q 330.17 528.03 333.07 535.25
  C 337.92 547.37 329.01 565.20 319.02 572.30
  C 312.45 576.96 301.36 579.31 293.81 574.91
  C 284.11 569.25 279.53 560.48 277.48 549.71
  C 272.43 523.23 297.22 495.36 323.72 495.04
  Z"
/>
<path fill="#857f87" d="
  M 160.82 495.52
  C 162.05 501.59 161.78 507.94 163.32 514.02
  Q 170.97 544.17 188.51 569.46
  C 201.89 588.77 220.10 602.55 241.17 612.12
  C 262.11 621.62 283.91 627.15 306.74 628.84
  Q 295.02 628.89 282.50 626.26
  Q 252.50 619.96 226.56 604.94
  Q 195.73 587.08 178.91 554.83
  C 168.80 535.45 161.06 517.17 160.82 495.52
  Z"
/>
<path fill="#857f87" d="
  M 421.58 508.23
  C 429.73 523.08 428.29 541.70 421.13 556.72
  C 422.14 553.53 423.62 550.28 424.38 547.36
  Q 427.44 535.69 426.03 523.69
  C 425.82 521.91 425.18 519.47 424.87 517.31
  C 424.44 514.36 422.51 511.16 421.58 508.23
  Z"
/>
<path fill="#857f87" d="
  M 132.57 510.96
  C 133.17 548.54 138.79 585.75 151.27 621.23
  C 152.27 624.06 161.96 628.39 164.76 629.66
  Q 173.93 633.81 183.21 637.78
  Q 167.57 632.60 153.25 624.25
  C 152.17 623.62 151.13 622.52 150.67 621.24
  C 141.94 597.05 137.07 572.51 134.12 546.49
  C 133.96 545.17 134.12 543.99 133.90 542.86
  Q 133.17 539.02 133.03 535.14
  Q 132.87 530.63 132.52 527.42
  Q 131.63 519.20 132.57 510.96
  Z"
/>
<path fill="#857f87" d="
  M 724.32 642.61
  Q 725.40 643.27 727.13 641.63
  Q 739.61 629.78 746.92 614.21
  C 760.26 585.79 764.92 550.83 746.23 523.51
  C 744.49 520.97 736.62 510.17 733.05 516.89
  C 730.74 521.22 731.69 529.91 732.30 534.81
  Q 734.32 550.88 735.17 562.50
  Q 737.76 597.70 728.05 632.50
  Q 726.50 638.04 725.05 640.87
  Q 737.50 601.61 734.46 561.00
  Q 733.51 548.17 731.37 531.32
  C 730.87 527.46 729.99 511.63 737.66 514.43
  Q 740.42 515.43 742.14 517.39
  C 768.25 547.02 760.93 591.57 742.70 623.23
  Q 735.83 635.15 725.14 644.06
  A 0.54 0.54 0.0 0 1 724.32 643.92
  Q 723.97 643.34 724.32 642.61
  Z"
/>
<path fill="#2e2c31" d="
  M 724.32 642.61
  Q 724.53 641.55 725.05 640.87
  Q 726.50 638.04 728.05 632.50
  Q 737.76 597.70 735.17 562.50
  Q 734.32 550.88 732.30 534.81
  C 731.69 529.91 730.74 521.22 733.05 516.89
  C 736.62 510.17 744.49 520.97 746.23 523.51
  C 764.92 550.83 760.26 585.79 746.92 614.21
  Q 739.61 629.78 727.13 641.63
  Q 725.40 643.27 724.32 642.61
  Z"
/>
<path fill="#857f87" d="
  M 317.77 584.67
  C 332.36 582.81 342.75 569.51 345.60 555.97
  C 346.20 553.17 345.99 549.98 346.03 546.99
  C 346.17 534.78 338.06 522.65 325.06 521.90
  C 324.35 521.86 324.00 521.59 323.49 521.16
  Q 323.69 520.91 324.25 520.96
  C 340.15 522.45 348.74 537.56 346.86 552.38
  Q 344.55 570.61 330.07 580.83
  Q 324.61 584.68 317.77 584.67
  Z"
/>
<path fill="#857f87" d="
  M 799.39 542.79
  Q 799.78 542.74 800.08 543.41
  Q 809.99 565.07 817.23 587.77
  Q 826.76 617.66 830.65 648.80
  Q 830.65 648.84 830.80 651.21
  C 830.99 654.37 831.87 657.11 831.85 660.74
  Q 831.83 664.01 832.17 666.73
  Q 834.00 681.28 831.90 695.80
  C 833.73 642.85 821.83 592.07 800.14 544.63
  Q 799.72 543.71 799.39 542.79
  Z"
/>
<path fill="#857f87" d="
  M 646.89 547.52
  L 646.86 558.99
  L 646.89 547.52
  Z"
/>
<path fill="#857f87" d="
  M 418.27 562.18
  Q 417.94 563.52 417.05 564.09
  Q 416.53 564.41 416.31 563.84
  Q 416.19 563.52 416.32 562.94
  Q 417.18 563.02 418.27 562.18
  Z"
/>
<path fill="#857f87" d="
  M 646.42 562.68
  Q 647.49 568.83 646.68 572.51
  Q 645.85 576.24 645.85 580.75
  C 645.85 582.92 645.03 585.04 644.89 587.12
  Q 644.52 592.53 643.51 596.75
  Q 642.88 599.39 642.62 600.82
  Q 639.56 617.39 634.23 633.37
  Q 623.41 665.78 603.43 693.46
  Q 589.37 712.94 571.77 729.31
  Q 566.95 733.78 561.99 738.12
  C 534.51 762.15 503.75 778.99 468.58 794.27
  Q 407.97 820.60 343.82 836.47
  C 342.42 836.82 340.23 837.10 338.48 837.71
  C 335.10 838.90 332.50 839.10 328.98 837.66
  Q 321.81 834.74 314.72 831.69
  C 312.16 830.59 308.97 828.63 305.75 827.52
  A 0.72 0.71 19.7 0 1 305.31 826.60
  Q 305.74 825.44 306.31 826.23
  Q 306.16 827.39 307.26 827.77
  C 315.74 830.72 323.67 835.44 330.74 837.71
  Q 333.25 838.51 337.25 837.50
  Q 348.89 834.57 360.48 831.48
  Q 417.87 816.18 472.20 792.19
  Q 484.17 786.90 510.47 772.92
  C 558.26 747.50 598.29 708.93 622.74 660.46
  Q 624.02 657.91 625.40 654.44
  Q 626.63 651.37 627.92 648.33
  Q 635.40 630.67 639.84 612.01
  Q 645.60 587.83 646.42 562.68
  Z"
/>
<path fill="#857f87" d="
  M 420.95 568.23
  Q 421.03 568.95 420.49 569.75
  Q 409.46 586.07 392.13 597.14
  Q 390.90 597.92 390.21 597.93
  Q 392.73 596.11 395.31 594.25
  Q 410.37 583.42 420.95 568.23
  Z"
/>
<path fill="#857f87" d="
  M 446.40 575.38
  Q 445.50 575.07 443.45 576.33
  L 450.75 568.56
  Q 452.05 567.19 451.31 568.92
  Q 449.72 572.66 446.40 575.38
  Z"
/>
<path fill="#857f87" d="
  M 808.23 654.25
  Q 807.69 653.70 807.62 653.00
  C 805.38 631.56 799.79 610.50 789.68 591.38
  C 785.34 583.17 774.37 566.65 766.82 585.01
  Q 765.60 587.97 764.39 594.29
  Q 762.42 604.54 760.83 614.86
  Q 757.96 633.46 753.56 651.75
  C 746.65 680.55 731.85 705.45 711.15 726.47
  Q 711.01 726.61 710.82 726.54
  Q 710.69 726.49 710.55 726.44
  Q 737.47 698.98 748.99 665.50
  Q 753.53 652.32 757.31 631.14
  Q 760.15 615.29 762.69 599.39
  C 763.71 593.03 765.96 579.35 772.66 576.38
  C 780.21 573.03 787.75 586.48 790.38 591.58
  Q 805.51 620.93 808.23 654.25
  Z"
/>
<path fill="#857f87" d="
  M 445.12 577.46
  Q 441.93 582.72 437.56 586.78
  L 445.12 577.46
  Z"
/>
<path fill="#857f87" d="
  M 522.20 607.06
  Q 522.10 606.87 521.95 606.63
  Q 521.81 606.42 521.78 606.18
  Q 521.18 601.56 520.27 597.01
  C 519.04 590.85 513.51 574.36 504.13 581.64
  Q 500.08 584.79 497.65 589.47
  Q 490.63 603.00 484.38 616.91
  Q 475.94 635.66 461.83 658.65
  Q 437.94 697.59 405.13 729.39
  C 371.78 761.71 333.04 786.95 291.50 807.67
  Q 290.92 807.97 290.27 808.01
  Q 291.23 807.01 291.97 806.64
  C 327.77 788.77 361.88 767.46 392.01 741.02
  Q 397.20 736.47 411.92 721.56
  C 435.89 697.29 456.49 669.06 472.10 639.61
  Q 475.98 632.28 487.81 608.31
  C 492.10 599.61 497.97 580.93 508.69 579.15
  Q 509.15 579.08 509.58 579.27
  C 519.21 583.53 521.87 597.27 522.20 607.06
  Z"
/>
<path fill="#857f87" d="
  M 439.71 579.62
  C 411.07 604.98 375.70 622.16 337.49 627.80
  Q 328.84 629.07 322.16 628.77
  C 348.12 627.43 374.04 619.70 397.11 608.11
  Q 418.29 597.46 439.71 579.62
  Z"
/>
<path fill="#857f87" d="
  M 434.99 589.73
  Q 411.69 616.01 380.32 631.06
  Q 358.87 641.35 334.99 646.64
  Q 334.77 646.69 332.86 646.88
  C 331.86 646.98 330.91 647.48 330.04 647.64
  Q 326.40 648.32 322.75 648.88
  Q 321.73 649.04 321.72 648.54
  Q 344.03 644.85 362.75 637.96
  Q 403.95 622.80 434.99 589.73
  Z"
/>
<path fill="#857f87" d="
  M 390.21 597.93
  Q 390.05 598.59 389.28 599.02
  Q 374.51 607.40 357.24 610.81
  C 353.35 611.58 349.20 611.86 345.58 612.32
  Q 333.25 613.91 320.91 612.03
  A 0.18 0.18 0.0 0 1 320.77 611.79
  Q 320.82 611.63 320.97 611.69
  Q 333.05 612.40 338.50 612.24
  Q 358.91 611.61 377.72 604.10
  C 381.73 602.50 386.07 599.97 390.21 597.93
  Z"
/>
<path fill="#857f87" d="
  M 294.60 604.94
  Q 294.32 604.99 294.19 605.09
  Q 293.82 605.39 294.26 605.57
  Q 295.32 606.00 296.07 606.73
  L 290.02 604.50
  Q 288.97 604.11 290.09 604.06
  Q 292.29 603.96 294.60 604.94
  Z"
/>
<path fill="#857f87" d="
  M 295.44 604.94
  L 302.21 605.90
  Q 298.39 606.53 295.44 604.94
  Z"
/>
<path fill="#857f87" d="
  M 297.38 607.09
  Q 308.38 610.07 319.45 611.57
  Q 319.56 611.96 319.01 611.91
  Q 307.82 610.86 297.38 607.09
  Z"
/>
<path fill="#857f87" d="
  M 522.35 608.44
  Q 523.19 612.58 522.42 616.73
  L 522.35 608.44
  Z"
/>
<path fill="#857f87" d="
  M 439.26 619.54
  Q 437.22 622.62 434.23 624.57
  Q 436.24 621.49 439.26 619.54
  Z"
/>
<path fill="#857f87" d="
  M 522.13 621.75
  Q 522.16 627.95 520.95 635.49
  C 514.33 676.72 494.36 713.64 463.24 741.00
  C 436.17 764.81 402.92 783.61 370.28 799.27
  Q 335.59 815.90 316.63 822.60
  C 313.10 823.84 308.46 826.07 306.53 825.98
  Q 306.72 825.48 307.09 825.34
  Q 334.72 815.28 361.36 802.84
  C 379.09 794.56 404.08 781.70 422.07 770.33
  C 441.81 757.85 460.56 744.65 476.01 727.64
  Q 500.50 700.68 512.65 665.92
  Q 519.49 646.36 520.79 632.75
  Q 521.56 624.62 522.13 621.75
  Z"
/>
<path fill="#857f87" d="
  M 440.79 628.96
  L 434.27 632.78
  Q 437.14 629.92 440.79 628.96
  Z"
/>
<path fill="#857f87" d="
  M 428.91 629.27
  C 414.40 643.30 397.22 654.63 379.49 664.18
  C 338.15 686.44 290.30 702.10 243.16 704.19
  Q 248.09 703.07 253.06 703.01
  Q 255.28 702.99 257.87 702.51
  C 260.03 702.11 262.50 702.06 264.39 701.79
  Q 322.08 693.44 375.75 665.31
  Q 405.90 649.51 428.91 629.27
  Z"
/>
<path fill="#857f87" d="
  M 443.31 632.80
  Q 438.39 647.92 430.04 661.51
  Q 413.06 689.15 390.69 712.82
  Q 392.77 709.66 395.35 706.86
  C 406.18 695.07 415.91 682.12 424.74 668.78
  Q 433.08 656.18 436.52 648.25
  Q 439.87 640.56 443.31 632.80
  Z"
/>
<path fill="#857f87" d="
  M 427.06 638.95
  Q 413.57 652.59 398.76 664.80
  Q 372.86 686.14 343.70 702.61
  C 331.48 709.52 319.05 716.15 306.26 722.01
  C 279.81 734.11 251.90 744.70 225.75 752.00
  Q 224.46 752.35 223.27 750.96
  Q 202.83 727.10 187.04 699.74
  A 0.94 0.93 -30.2 0 1 187.38 698.47
  Q 187.49 698.41 187.77 698.52
  Q 187.94 698.59 188.03 698.72
  Q 188.26 699.04 187.90 699.11
  Q 187.89 700.33 189.05 702.26
  Q 204.78 728.42 223.11 749.65
  Q 224.99 751.84 228.24 750.70
  C 232.96 749.05 238.68 747.56 242.55 746.31
  Q 272.15 736.78 300.55 724.06
  Q 307.24 721.07 329.78 709.54
  C 365.83 691.11 397.71 666.70 427.06 638.95
  Z"
/>
<path fill="#857f87" d="
  M 189.02 639.71
  C 208.94 645.12 228.87 648.48 249.32 650.40
  Q 249.27 651.23 247.98 651.10
  Q 231.13 649.31 211.00 645.51
  Q 198.85 643.22 189.02 639.71
  Z"
/>
<path fill="#857f87" d="
  M 321.03 648.69
  Q 318.03 650.20 314.78 649.74
  A 1.31 1.27 -49.9 0 0 314.19 649.80
  Q 309.80 651.30 305.21 650.73
  Q 304.75 650.68 304.32 650.86
  Q 303.89 651.04 303.25 651.17
  Q 296.90 652.48 291.10 651.53
  L 321.03 648.69
  Z"
/>
<path fill="#857f87" d="
  M 251.99 650.81
  L 266.99 651.66
  Q 259.52 652.64 251.99 650.81
  Z"
/>
<path fill="#857f87" d="
  M 808.43 655.94
  Q 810.54 680.03 807.26 698.49
  Q 801.48 731.01 784.54 756.54
  Q 780.01 763.37 778.55 767.15
  Q 777.97 768.92 775.19 770.53
  Q 773.86 771.30 774.75 770.06
  C 790.77 747.65 802.50 724.23 806.76 697.75
  Q 809.66 679.69 807.95 657.01
  Q 807.91 656.43 808.43 655.94
  Z"
/>
<path fill="#857f87" d="
  M 831.76 698.50
  C 832.39 703.28 831.92 706.73 829.21 711.01
  C 821.89 722.57 813.59 732.93 804.36 743.60
  Q 795.56 753.77 785.01 762.04
  Q 811.57 738.28 830.14 708.06
  C 831.42 705.99 830.85 701.36 831.76 698.50
  Z"
/>
<path fill="#857f87" d="
  M 213.13 704.17
  Q 200.59 703.33 188.86 699.37
  Q 188.48 699.24 188.38 698.94
  Q 188.90 698.79 189.48 698.97
  Q 201.62 702.70 206.99 703.06
  Q 211.12 703.34 213.13 704.17
  Z"
/>
<path fill="#857f87" d="
  M 241.23 704.35
  Q 228.39 705.64 215.61 704.31
  L 241.23 704.35
  Z"
/>
<path fill="#857f87" d="
  M 377.72 725.67
  C 356.96 746.68 329.09 765.96 302.75 780.04
  Q 292.78 785.36 274.84 794.05
  C 273.15 794.86 271.08 795.44 269.21 796.26
  A 0.68 0.68 0.0 0 0 268.93 797.28
  Q 269.54 798.12 270.58 798.91
  Q 277.55 804.18 284.37 809.64
  Q 285.47 810.51 287.27 809.45
  Q 288.71 808.59 290.27 808.01
  Q 288.03 809.95 285.14 810.41
  A 1.38 1.38 0.0 0 1 284.08 810.13
  L 268.39 797.90
  A 1.05 1.04 -37.7 0 1 268.62 796.12
  C 308.49 778.74 345.52 755.31 377.72 725.67
  Z"
/>
<path fill="#857f87" d="
  M 521.45 735.06
  L 513.19 741.69
  L 521.45 735.06
  Z"
/>
<path fill="#857f87" d="
  M 687.34 748.16
  Q 635.08 790.65 574.06 819.70
  Q 573.42 820.01 568.88 821.97
  C 566.56 822.98 564.18 824.32 562.02 825.24
  Q 546.75 831.74 531.25 837.63
  Q 527.22 839.16 523.19 840.69
  A 0.28 0.28 0.0 0 1 522.85 840.57
  Q 522.77 840.45 522.78 840.30
  Q 522.78 840.26 522.81 840.23
  Q 525.78 837.66 528.30 838.12
  Q 551.22 829.95 569.17 821.38
  C 609.85 801.96 648.72 778.54 683.35 750.85
  Q 686.23 748.54 687.34 748.16
  Z"
/>
<path fill="#857f87" d="
  M 799.28 775.12
  Q 796.64 779.14 791.46 783.95
  Q 776.84 797.51 771.58 802.08
  Q 741.02 828.63 705.67 848.36
  C 699.93 851.57 694.08 854.98 688.43 857.80
  Q 649.66 877.13 611.79 886.81
  C 585.58 893.50 559.04 897.89 532.00 899.27
  C 530.43 899.35 528.23 899.77 526.33 899.82
  Q 507.42 900.40 488.51 899.57
  L 492.78 899.26
  Q 508.89 899.57 514.25 899.50
  Q 547.63 899.07 580.51 893.25
  C 591.71 891.27 602.78 888.44 613.75 885.47
  Q 657.55 873.62 697.59 852.33
  Q 753.60 822.55 799.28 775.12
  Z"
/>
<path fill="#857f87" d="
  M 252.97 803.54
  Q 253.46 803.47 253.90 803.85
  C 320.64 861.48 404.82 894.49 492.78 899.26
  L 488.51 899.57
  C 402.34 894.15 317.89 860.88 252.97 803.54
  Z"
/>
</svg>
