<?xml version="1.0" encoding="UTF-8" standalone="no"?>
<!DOCTYPE svg PUBLIC "-//W3C//DTD SVG 1.1//EN" "http://www.w3.org/Graphics/SVG/1.1/DTD/svg11.dtd">
<svg xmlns="http://www.w3.org/2000/svg" version="1.1" viewBox="0.00 0.00 831.00 801.00">
<path fill="#2e2c31" d="   M 411.27 793.07   C 316.07 793.11 223.33 756.69 151.82 693.93   Q 144.28 687.32 127.31 669.83   C 89.65 631.00 60.56 583.68 41.40 533.08   C -30.16 344.09 60.45 137.03 236.55 47.25   Q 245.54 42.67 254.65 38.72   C 344.72 -0.34 446.19 -5.76 539.50 24.71   C 630.10 54.29 707.97 116.52 757.45 197.78   C 790.12 251.44 808.55 312.65 812.49 375.19   C 813.21 386.54 813.22 401.49 812.96 411.50   C 812.52 428.94 810.40 447.89 806.94 465.60   C 782.81 588.91 701.07 695.38 589.41 751.40   Q 506.40 793.04 411.27 793.07   Z   M 384.01 300.92   C 392.55 301.12 401.37 308.27 403.60 316.23   Q 406.42 326.30 407.87 339.29   C 415.32 405.67 384.33 469.32 338.77 515.71   C 333.15 521.44 325.99 527.39 320.07 532.04   C 300.84 547.16 279.12 559.27 257.53 569.06   Q 227.23 582.79 193.09 590.62   Q 165.48 596.95 132.25 598.09   Q 110.74 598.83 91.26 592.60   Q 89.18 591.94 90.28 593.82   Q 105.25 619.41 124.60 641.97   C 126.31 643.97 127.76 644.57 130.24 643.71   Q 137.05 641.34 143.91 639.20   Q 193.50 623.73 239.05 598.79   Q 282.01 575.27 316.05 543.56   C 321.75 538.25 326.91 533.76 332.35 528.86   C 335.96 525.62 340.87 521.30 345.07 521.77   A 1.09 1.08 9.4 0 1 346.01 523.07   C 343.15 536.24 336.02 549.20 328.68 560.39   C 293.94 613.40 246.57 652.88 189.96 680.67   Q 180.52 685.30 171.27 689.76   A 0.48 0.48 0.0 0 0 171.18 690.56   L 186.04 702.44   A 2.55 2.54 48.8 0 0 188.93 702.64   C 192.01 700.78 194.91 699.03 198.22 697.41   C 218.65 687.44 239.53 674.61 257.71 662.15   Q 281.74 645.68 302.78 625.53   Q 318.29 610.67 324.90 603.16   Q 361.41 561.65 384.75 511.52   C 389.46 501.39 393.93 491.03 399.60 481.39   Q 402.62 476.25 406.01 473.54   C 414.33 466.89 420.52 480.78 422.01 486.35   Q 425.43 499.16 424.72 512.51   C 423.30 539.53 415.52 564.49 402.10 588.84   C 385.93 618.18 361.48 639.50 333.70 657.66   C 294.84 683.07 253.12 702.87 209.65 718.99   A 1.16 1.02 -48.8 0 1 209.13 719.06   Q 208.75 719.02 208.51 719.14   Q 207.93 719.42 208.50 719.72   C 214.22 722.76 231.82 732.20 237.76 730.78   C 285.45 719.44 333.33 703.87 377.85 683.31   C 400.82 672.70 422.27 661.57 441.84 648.09   Q 463.03 633.49 481.74 614.01   Q 538.31 555.09 547.04 473.96   C 548.82 457.36 549.08 443.32 547.41 424.01   C 545.57 402.84 536.32 381.16 527.79 360.97   C 524.93 354.21 520.07 341.84 522.04 335.99   C 523.39 331.95 530.14 331.08 533.62 331.63   Q 542.98 333.10 550.19 337.57   Q 571.22 350.58 587.27 371.47   C 602.23 390.93 608.34 414.72 609.76 439.00   C 612.62 488.07 603.24 537.12 583.98 582.23   C 569.69 615.68 548.30 645.88 521.04 669.90   C 494.63 693.19 464.20 712.77 433.09 729.07   Q 432.50 729.38 433.09 729.67   Q 433.56 729.90 434.59 729.51   Q 515.88 698.49 584.15 644.62   C 602.99 629.75 619.56 614.35 633.10 594.57   C 648.21 572.51 656.06 545.16 660.42 518.49   C 662.58 505.23 664.17 491.68 667.95 478.76   Q 669.18 474.56 672.02 471.27   C 680.82 461.09 692.38 483.89 695.01 489.60   Q 708.15 518.13 710.67 549.49   C 713.51 584.95 707.01 617.43 687.83 647.56   Q 684.33 653.06 680.81 658.55   Q 680.37 659.24 680.24 659.86   A 0.43 0.43 0.0 0 0 680.93 660.29   C 683.70 657.99 686.42 655.22 688.84 653.09   Q 707.93 636.25 722.60 615.38   Q 727.17 608.87 731.64 602.33   A 6.51 6.48 64.5 0 0 732.77 599.12   C 733.04 595.68 733.67 591.97 733.80 588.58   C 736.18 525.58 718.08 464.00 687.78 409.20   Q 679.07 393.44 668.00 379.24   Q 662.13 371.73 656.47 364.07   C 652.27 358.40 656.81 355.71 662.00 355.93   C 672.19 356.35 682.87 360.28 691.90 364.89   C 734.82 386.81 763.50 425.37 784.36 467.70   Q 784.62 468.22 784.79 467.66   Q 790.65 448.30 792.85 428.18   C 792.94 427.36 792.84 426.08 792.52 425.49   C 778.76 400.06 758.17 377.19 735.91 359.02   C 726.77 351.56 715.37 343.84 704.87 336.61   C 700.68 333.72 691.84 327.72 691.78 322.27   C 691.68 312.69 708.44 310.32 715.63 311.34   Q 736.37 314.29 749.66 330.88   C 753.65 335.88 756.04 341.08 758.94 346.40   Q 763.76 355.23 773.98 354.88   C 774.94 354.85 775.46 354.80 776.25 354.11   C 780.39 350.44 787.21 347.90 791.44 351.82   Q 793.70 353.91 792.98 350.92   Q 790.12 339.02 786.42 327.32   Q 782.08 313.55 781.15 309.55   C 778.66 298.74 777.78 286.61 776.62 277.13   C 775.02 264.02 764.81 253.90 752.77 249.42   Q 749.31 248.13 742.73 249.36   Q 742.26 249.45 741.91 249.78   C 739.72 251.82 737.59 254.08 735.17 255.48   C 723.64 262.13 706.82 258.71 699.55 247.43   A 2.56 2.56 0.0 0 1 699.43 244.84   C 702.07 239.78 701.35 234.62 698.02 229.94   Q 691.79 221.21 680.99 220.94   C 674.54 220.79 666.06 224.72 660.50 226.15   C 643.03 230.63 616.40 230.85 601.82 218.45   Q 599.18 216.21 597.67 212.33   C 595.87 207.74 598.56 203.78 594.26 199.73   C 589.70 195.45 585.99 196.61 580.54 195.04   A 2.90 2.89 28.6 0 0 577.56 195.91   C 571.50 202.82 561.96 206.52 552.98 203.90   C 548.58 202.63 542.27 199.79 541.01 194.91   A 2.03 2.03 0.0 0 1 541.93 192.66   C 543.97 191.42 550.40 186.79 548.96 183.78   C 546.98 179.66 541.94 179.23 537.49 178.98   C 534.87 178.83 533.98 177.95 532.55 175.97   C 526.80 167.99 538.11 161.78 544.50 160.92   C 555.12 159.47 566.94 162.06 573.58 171.30   C 576.20 174.93 573.61 178.80 577.70 181.82   C 582.69 185.50 588.06 187.58 593.93 184.10   C 597.95 181.71 599.35 177.14 597.02 173.03   C 594.94 169.37 591.03 167.74 589.57 163.48   C 587.15 156.47 597.00 155.83 600.75 156.37   Q 621.09 159.29 640.12 167.09   Q 680.20 183.52 714.39 210.10   Q 730.45 222.58 745.34 236.43   Q 746.38 237.39 747.57 237.84   A 0.37 0.37 0.0 0 0 748.05 237.36   Q 745.75 231.18 743.02 225.24   C 737.89 214.09 730.50 204.01 725.09 192.90   Q 722.33 187.23 718.48 178.73   C 711.14 162.53 698.01 157.82 682.02 152.94   C 674.57 150.66 667.08 144.97 663.69 137.79   C 661.78 133.73 663.92 128.31 661.86 123.91   C 657.42 114.45 644.25 111.25 635.06 113.20   Q 629.72 114.34 626.53 119.32   C 625.53 120.89 624.81 121.31 622.99 121.13   C 609.38 119.81 598.90 115.58 591.26 103.72   Q 589.36 100.76 588.89 97.78   A 2.09 2.08 75.7 0 1 590.25 95.49   C 596.20 93.38 599.07 89.19 599.16 82.82   C 599.39 67.09 582.50 54.99 567.49 60.76   C 563.95 62.12 562.02 64.52 559.72 67.30   C 557.19 70.34 554.83 70.33 551.00 70.99   Q 536.34 73.53 524.87 66.83   C 522.75 65.60 517.21 61.36 518.03 58.51   C 519.59 53.03 521.28 49.90 518.10 44.34   C 511.64 33.04 499.91 30.53 488.21 34.89   C 480.24 37.86 475.68 39.90 467.24 40.86   C 453.51 42.43 440.01 41.47 426.40 39.80   A 1.36 1.36 0.0 0 1 425.20 38.52   Q 424.93 33.73 420.97 30.75   C 408.27 21.22 391.61 19.93 376.72 24.40   C 366.47 27.48 355.59 34.41 353.89 45.53   C 352.31 55.92 338.43 60.62 329.50 60.99   Q 316.12 61.55 303.12 58.44   C 297.13 57.01 289.25 60.70 284.94 64.40   C 279.64 68.94 276.24 74.62 275.41 81.64   C 275.03 84.84 275.24 87.54 273.56 90.08   C 265.96 101.46 249.85 108.91 236.22 106.05   Q 234.28 105.65 232.69 104.24   C 228.71 100.71 225.93 98.77 219.74 98.17   Q 205.62 96.80 196.90 106.53   Q 194.95 108.71 193.00 112.98   C 187.45 125.20 175.46 134.18 163.45 139.79   A 1.67 1.65 43.4 0 1 162.09 139.82   Q 149.28 134.34 138.17 140.66   C 130.57 144.99 126.24 151.72 126.10 160.49   C 125.96 168.61 126.60 175.75 122.35 183.12   C 119.57 187.93 115.99 190.33 110.84 192.03   C 107.06 193.28 104.53 193.83 101.86 197.11   C 97.11 202.92 93.40 211.37 94.25 218.98   C 94.76 223.61 97.74 225.92 96.30 230.52   C 89.26 253.03 85.54 268.98 74.23 285.31   C 69.74 291.79 61.81 300.45 57.43 306.45   C 38.88 331.88 34.67 367.00 34.65 398.33   C 34.63 428.65 38.09 458.81 45.29 488.26   Q 47.20 496.10 52.49 512.26   C 53.31 514.77 54.16 515.91 56.33 517.14   Q 80.06 530.64 106.02 536.39   Q 147.96 545.69 190.93 544.42   C 252.96 542.60 309.32 519.94 347.57 469.80   Q 348.06 469.16 348.07 468.37   Q 348.09 467.72 347.61 468.16   C 345.90 469.74 343.83 470.97 342.20 472.40   C 311.52 499.33 271.54 519.07 230.38 521.73   C 215.92 522.66 201.30 522.60 187.13 519.86   C 144.56 511.64 104.13 490.34 82.46 451.30   C 73.50 435.14 65.06 415.91 63.14 397.38   C 59.03 357.92 74.75 321.25 100.99 292.50   Q 118.20 273.63 143.25 268.33   Q 145.58 267.84 146.88 266.37   C 158.31 253.46 177.18 247.96 192.56 257.98   C 196.90 260.80 200.39 266.14 204.89 267.82   C 212.15 270.54 219.86 265.79 220.86 258.13   C 221.32 254.62 221.40 246.97 217.91 244.60   Q 212.42 240.87 205.87 240.96   A 0.86 0.85 89.0 0 1 205.01 240.12   C 204.93 235.68 204.09 233.19 207.56 229.83   C 214.62 222.99 222.33 222.44 230.90 226.84   C 237.11 230.02 241.36 234.98 246.24 239.51   C 252.79 245.61 260.12 244.93 266.27 246.18   C 272.77 247.50 282.26 254.83 280.43 262.59   C 279.10 268.22 275.40 270.04 270.33 271.91   C 265.23 273.80 259.80 280.79 263.03 286.22   C 267.26 293.33 277.46 291.66 283.42 288.38   Q 289.50 285.03 291.88 278.47   Q 292.52 276.71 294.50 276.99   C 301.81 278.04 314.34 283.66 311.79 293.50   Q 309.45 302.53 316.82 307.51   Q 322.31 311.21 328.26 309.27   Q 336.83 306.47 336.24 297.01   C 335.94 292.12 333.17 291.38 330.16 288.88   Q 328.95 287.87 329.42 285.93   C 330.31 282.24 332.10 282.15 335.68 281.85   Q 347.93 280.83 356.89 289.36   C 359.92 292.24 362.88 297.28 361.70 301.48   C 360.76 304.82 357.45 309.93 359.81 313.68   Q 365.56 322.80 376.54 320.95   C 385.87 319.38 387.69 309.01 383.43 301.93   Q 382.80 300.90 384.01 300.92   Z   M 137.45 465.16   C 119.34 442.15 107.50 414.83 101.57 386.21   C 98.29 370.37 95.70 353.74 94.82 337.56   Q 94.72 335.68 93.51 337.13   Q 92.57 338.28 91.63 340.78   C 83.28 363.03 84.77 390.49 90.52 413.09   C 96.59 436.92 110.19 458.10 128.88 474.15   Q 134.99 479.40 139.98 481.83   C 142.49 483.06 149.68 484.35 151.56 481.07   A 1.03 1.02 -53.1 0 0 151.39 479.83   C 146.53 475.08 141.53 470.34 137.45 465.16   Z   M 228.63 474.56   Q 228.87 474.54 229.10 474.52   Q 229.48 474.50 229.79 474.31   C 240.66 467.79 247.10 456.91 248.05 444.55   C 248.95 432.96 245.30 423.04 235.17 417.10   Q 230.06 414.10 223.95 415.26   Q 223.35 415.38 223.71 415.87   Q 224.40 416.82 225.56 416.91   Q 226.05 416.96 226.38 417.33   C 227.66 418.80 229.48 419.81 230.63 421.06   Q 235.95 426.85 236.30 433.50   C 237.23 450.64 224.00 470.66 204.99 470.28   C 188.00 469.94 177.27 448.64 178.57 434.01   Q 179.23 426.54 182.30 418.11   C 184.91 410.93 192.24 403.55 197.19 399.18   C 205.03 392.24 220.08 386.24 231.39 387.53   C 233.89 387.82 236.17 387.53 238.51 388.01   C 251.81 390.74 264.37 401.28 268.32 414.68   A 1.70 1.69 78.1 0 0 270.17 415.89   Q 273.61 415.44 277.19 415.54   Q 279.17 415.59 281.21 416.34   C 293.14 420.75 300.45 431.84 300.62 444.75   Q 300.78 456.19 294.93 465.92   C 286.92 479.26 270.60 489.94 255.46 494.61   Q 233.01 501.53 209.51 499.82   Q 204.44 499.45 199.44 498.99   A 0.43 0.41 -73.9 0 0 199.02 499.23   Q 198.77 499.72 199.38 499.90   C 214.58 504.62 229.25 505.81 246.50 504.78   C 264.27 503.72 281.65 498.19 296.22 487.99   C 316.74 473.63 331.94 453.96 333.12 427.34   C 333.79 412.13 329.36 397.87 319.07 387.00   C 316.04 383.81 313.08 380.47 309.86 377.91   C 287.02 359.86 255.21 354.45 227.25 360.76   C 204.27 365.95 183.05 382.60 174.21 404.76   C 166.33 424.50 169.04 448.34 183.98 464.40   C 185.64 466.19 188.12 467.71 190.30 469.42   C 199.24 476.40 213.89 479.74 224.26 476.40   C 225.17 476.10 225.79 475.24 227.14 475.60   Q 227.68 475.75 227.92 475.26   Q 228.00 475.11 228.07 474.95   Q 228.25 474.60 228.63 474.56   Z"/>
<path fill="#2e2c31" d="   M 430.82 143.29   C 434.29 148.44 448.42 145.77 453.30 144.08   A 0.84 0.83 71.5 0 1 454.37 144.62   C 455.57 148.47 457.27 151.99 461.42 153.07   C 465.67 154.17 470.17 151.65 474.67 152.06   C 485.00 153.00 494.17 165.29 490.41 175.46   C 486.62 185.69 473.30 184.96 464.75 182.80   Q 463.59 182.50 462.79 182.03   Q 462.34 181.77 462.25 181.26   C 460.77 172.82 456.06 165.47 448.01 161.97   C 438.38 157.77 426.08 159.96 421.77 170.50   A 1.15 1.13 13.9 0 1 420.59 171.20   C 414.27 170.46 402.47 166.49 400.32 159.50   C 398.59 153.88 404.27 148.53 397.95 143.55   C 390.24 137.48 379.17 136.62 370.49 139.84   C 365.75 141.60 364.80 144.45 359.01 143.91   Q 353.97 143.44 348.95 142.84   Q 348.44 142.78 348.06 142.43   C 345.78 140.34 343.86 138.29 341.12 136.79   C 337.96 135.07 328.83 131.11 328.96 126.84   C 329.09 122.59 334.44 119.48 338.00 118.92   A 2.10 2.09 62.9 0 1 339.79 119.50   C 345.48 125.10 352.28 129.88 359.14 122.17   C 364.04 116.67 366.56 112.53 374.56 111.27   Q 379.81 110.44 384.23 113.81   C 386.66 115.66 387.49 119.13 388.68 120.91   Q 393.63 128.33 402.99 128.08   C 407.88 127.95 412.92 124.87 413.10 119.59   C 413.29 113.95 408.14 111.92 403.45 110.75   A 0.84 0.84 0.0 0 1 403.03 109.37   Q 406.64 105.33 411.50 104.53   Q 428.78 101.68 442.50 112.53   C 446.95 116.04 449.07 120.94 447.13 126.52   C 445.75 130.44 441.86 135.40 437.23 135.19   C 432.70 134.97 427.83 138.83 430.82 143.29   Z"/>
<path fill="#2e2c31" d="   M 502.08 515.05   C 488.08 546.83 469.15 576.14 447.11 602.90   C 436.82 615.39 424.46 628.82 410.99 637.94   Q 410.58 638.22 410.21 638.24   A 0.20 0.19 -72.2 0 1 410.05 637.92   C 423.28 621.76 436.62 604.44 447.14 586.40   Q 467.77 551.01 473.70 509.99   C 478.78 474.86 478.93 432.56 470.71 395.50   C 469.02 387.87 470.52 381.35 475.94 375.55   C 482.17 368.88 497.69 361.01 505.98 368.76   C 510.27 372.77 513.15 382.27 514.86 388.29   C 527.12 431.42 519.91 474.59 502.08 515.05   Z"/>
<path fill="#2e2c31" d="   M 292.67 375.36   C 294.99 375.94 297.41 377.37 299.12 378.18   Q 304.42 380.68 311.23 386.00   Q 315.34 389.21 316.47 390.80   Q 316.58 390.97 317.01 391.15   A 1.70 1.63 -4.0 0 1 317.74 391.76   Q 319.37 394.29 321.08 396.76   C 333.62 414.76 330.44 439.89 318.95 457.42   A 0.62 0.62 0.0 0 1 318.08 457.59   Q 317.31 457.05 317.93 456.44   A 1.07 1.06 76.4 0 0 318.22 455.96   C 328.51 421.62 306.63 390.59 274.76 379.83   A 2.49 2.48 10.3 0 1 273.07 377.40   C 273.25 371.94 284.87 373.12 288.14 373.75   Q 288.63 373.85 289.01 374.17   L 289.31 374.42   Q 289.51 374.60 289.78 374.54   Q 290.95 374.29 291.79 374.94   Q 292.19 375.24 292.67 375.36   Z"/>
<path fill="#2e2c31" d="   M 648.23 415.30   C 673.25 450.52 658.95 504.96 630.92 533.92   Q 629.28 535.63 627.19 536.63   Q 625.61 537.39 626.21 535.74   C 635.03 511.66 637.65 486.61 636.84 460.83   C 636.49 449.64 634.77 436.67 633.60 424.58   C 632.99 418.28 632.35 413.72 634.77 409.30   C 638.19 403.04 646.12 412.33 648.23 415.30   Z"/>
<script xmlns=""/></svg>